<svg width="78.000000" height="74.762695" viewBox="0 0 78 74.7627" fill="none" xmlns="http://www.w3.org/2000/svg" xmlns:xlink="http://www.w3.org/1999/xlink">
	<desc>
			Created with Pixso.
	</desc>
	<defs>
		<clipPath id="clip128_6966">
			<rect id="_Слой_1" rx="0.000000" width="77.000000" height="73.762642" transform="translate(0.500000 0.500000)" fill="white" fill-opacity="0"/>
		</clipPath>
	</defs>
	<rect id="_Слой_1" rx="0.000000" width="77.000000" height="73.762642" transform="translate(0.500000 0.500000)" fill="#FFFFFF" fill-opacity="0"/>
	<g clip-path="url(#clip128_6966)">
		<path id="Vector" d="M0 16.96C0.09 16.43 0.16 15.89 0.29 15.36C1.57 9.79 6.68 6.06 12.37 6.54C17.63 6.99 21.94 11.09 22.63 16.34C22.71 16.97 22.75 17.61 22.75 18.24C22.75 28.24 22.75 38.24 22.75 48.25C22.75 48.4 22.75 48.55 22.75 48.72L19.49 48.72L19.49 48.22C19.49 38.15 19.5 28.07 19.49 17.99C19.49 14.58 17.56 11.66 14.46 10.36C9.62 8.33 4.04 11.51 3.34 16.71C3.28 17.13 3.26 17.57 3.26 18C3.25 30.32 3.25 42.65 3.25 54.97C3.25 55.09 3.25 55.2 3.25 55.32C7.6 51.61 12.3 50.81 17.29 53.72C20.88 55.81 22.57 59.16 22.77 63.33L19.55 63.33C19.46 62.75 19.41 62.15 19.28 61.56C18.51 57.98 15.12 55.02 10.81 55.26C7.09 55.47 3.88 58.43 3.33 62.25C2.63 67.15 6.42 71.49 11.44 71.5C21.8 71.51 32.16 71.5 42.51 71.5C50.52 71.5 58.53 71.5 66.54 71.5C70.41 71.5 73.63 68.97 74.51 65.23C74.67 64.55 74.72 63.83 74.73 63.12C74.75 59.05 74.74 54.97 74.74 50.9L74.74 50.41L77.99 50.41L77.99 50.81C77.99 54.95 78 59.09 77.99 63.22C77.99 68.76 74.38 73.29 68.98 74.49C68.16 74.67 67.3 74.75 66.45 74.75C48.16 74.76 29.87 74.76 11.58 74.76C6.43 74.75 2.23 71.76 0.56 66.89C0.44 66.54 0.21 66.65 0 66.63C0 50.07 0 33.52 0 16.96Z" fill="#FFFFFF" fill-opacity="1.000000" fill-rule="nonzero"/>
		<path id="Vector" d="M53.59 48.74C52.03 48.74 50.47 48.75 48.91 48.74C47.74 48.74 47.1 48.1 47.1 46.93C47.1 45.08 47.1 43.24 47.1 41.4C47.1 41.16 47.09 40.98 46.8 40.88C46.54 40.79 46.37 40.77 46.14 41C44.86 42.32 43.55 43.61 42.25 44.91C41.4 45.75 40.5 45.75 39.65 44.91C37.47 42.73 35.29 40.55 33.11 38.37C32.21 37.47 32.21 36.59 33.11 35.69C34.41 34.39 35.7 33.08 37.02 31.79C37.26 31.56 37.16 31.39 37.09 31.16C37.01 30.92 36.87 30.88 36.64 30.88C34.8 30.89 32.96 30.88 31.11 30.88C29.88 30.88 29.25 30.24 29.25 29C29.25 25.89 29.25 22.78 29.25 19.67C29.25 18.54 29.91 17.88 31.04 17.88C32.91 17.88 34.77 17.87 36.64 17.88C36.89 17.88 37.03 17.83 37.11 17.57C37.2 17.33 37.25 17.17 37.03 16.95C35.69 15.64 34.38 14.31 33.06 12.99C32.26 12.19 32.25 11.26 33.06 10.46C35.28 8.24 37.5 6.03 39.72 3.81C40.53 3.01 41.45 3.01 42.26 3.82C43.58 5.13 44.91 6.45 46.21 7.78C46.43 8 46.59 7.93 46.81 7.85C47.05 7.77 47.14 7.65 47.13 7.39C47.12 5.53 47.13 3.68 47.13 1.83C47.13 0.64 47.77 0 48.96 0C52.05 -0.01 55.13 -0.01 58.22 0C59.49 0 60.11 0.61 60.11 1.88C60.12 3.71 60.13 5.54 60.1 7.36C60.1 7.7 60.28 7.78 60.51 7.9C60.76 8.02 60.9 7.92 61.06 7.76C62.35 6.46 63.64 5.17 64.94 3.88C65.83 2.99 66.71 2.98 67.59 3.86C69.78 6.05 71.97 8.23 74.16 10.42C75.01 11.27 75.02 12.18 74.18 13.02C72.89 14.31 71.6 15.61 70.3 16.89C70.08 17.1 70.02 17.27 70.14 17.57C70.25 17.87 70.44 17.88 70.69 17.88C72.53 17.87 74.37 17.87 76.21 17.88C77.33 17.88 77.99 18.54 77.99 19.65C78 22.81 78 25.97 77.99 29.13C77.99 30.23 77.32 30.89 76.21 30.89C74.33 30.9 72.45 30.9 70.57 30.89C70.3 30.89 70.19 30.98 70.11 31.21C70.02 31.44 69.97 31.6 70.19 31.81C71.52 33.12 72.84 34.44 74.15 35.76C74.98 36.59 74.98 37.5 74.15 38.33C71.96 40.52 69.77 42.71 67.58 44.9C66.7 45.78 65.81 45.78 64.93 44.9C63.63 43.6 62.32 42.3 61.03 40.99C60.79 40.74 60.61 40.85 60.36 40.92C60.1 41 60.1 41.17 60.1 41.39C60.1 43.24 60.1 45.09 60.1 46.95C60.1 48.1 59.46 48.74 58.32 48.74C56.74 48.75 55.17 48.74 53.59 48.74L53.59 48.74ZM50.36 45.47L56.87 45.47C56.87 45.3 56.87 45.16 56.87 45.03C56.87 43.35 56.87 41.67 56.88 40C56.88 39.18 57.28 38.65 58.04 38.35C58.79 38.06 59.55 37.76 60.28 37.42C61.17 37.02 61.76 37.09 62.46 37.78C63.63 38.96 64.81 40.13 65.98 41.31C66.08 41.41 66.13 41.55 66.19 41.65C67.8 40.04 69.31 38.53 70.85 36.99C70.78 36.91 70.68 36.81 70.59 36.71C69.39 35.52 68.2 34.33 67.01 33.13C66.39 32.51 66.3 31.92 66.62 31.12C66.92 30.39 67.2 29.66 67.45 28.91C67.74 28.04 68.28 27.63 69.19 27.63C70.9 27.63 72.6 27.63 74.3 27.63C74.43 27.63 74.57 27.63 74.71 27.63L74.71 21.13C74.54 21.13 74.39 21.13 74.24 21.13C72.6 21.13 70.96 21.14 69.32 21.13C68.42 21.13 67.89 20.73 67.57 19.9C67.29 19.16 66.99 18.44 66.66 17.72C66.25 16.83 66.34 16.23 67.04 15.52C68.22 14.35 69.4 13.17 70.57 11.99C70.67 11.9 70.75 11.8 70.8 11.75C69.25 10.2 67.74 8.69 66.18 7.14C66.12 7.21 66.04 7.33 65.94 7.42C64.76 8.61 63.57 9.8 62.39 10.98C61.76 11.6 61.16 11.7 60.34 11.36C59.64 11.08 58.93 10.8 58.21 10.57C57.29 10.27 56.88 9.75 56.88 8.78C56.87 7.09 56.88 5.4 56.88 3.71C56.88 3.57 56.88 3.42 56.88 3.28L50.36 3.28C50.36 3.44 50.36 3.58 50.36 3.71C50.36 5.39 50.37 7.07 50.36 8.74C50.36 9.58 49.96 10.11 49.18 10.41C48.42 10.7 47.67 11.01 46.94 11.34C46.11 11.72 45.47 11.63 44.82 10.98C43.64 9.8 42.45 8.61 41.27 7.43C41.18 7.34 41.09 7.26 41.02 7.2C39.49 8.73 37.97 10.25 36.41 11.81C36.48 11.87 36.58 11.94 36.67 12.03C37.86 13.23 39.05 14.43 40.24 15.63C40.85 16.25 40.94 16.84 40.61 17.64C40.33 18.35 40.05 19.06 39.81 19.78C39.5 20.73 38.97 21.13 37.96 21.13C36.28 21.13 34.61 21.13 32.93 21.13C32.8 21.13 32.66 21.13 32.53 21.13L32.53 27.63C32.71 27.63 32.86 27.63 33.01 27.63C34.66 27.63 36.31 27.63 37.96 27.63C38.81 27.63 39.35 28.03 39.66 28.83C39.94 29.57 40.25 30.31 40.58 31.04C40.98 31.91 40.89 32.54 40.22 33.21C39.17 34.27 38.12 35.32 37.07 36.36C36.84 36.59 36.61 36.8 36.36 37.04C37.91 38.61 39.42 40.14 40.95 41.69C42.28 40.36 43.54 39.09 44.81 37.83C45.5 37.14 46.08 37.05 46.98 37.42C47.67 37.71 48.37 37.97 49.08 38.21C49.95 38.49 50.36 39.02 50.36 39.95C50.36 41.64 50.36 43.33 50.36 45.01C50.36 45.16 50.36 45.31 50.36 45.48L50.36 45.47Z" fill="#FFFFFF" fill-opacity="1.000000" fill-rule="nonzero"/>
		<path id="Vector" d="M47.11 55.28L47.11 58.49L32.52 58.49L32.52 61.73L47.1 61.73L47.1 65.01C46.95 65.01 46.82 65.01 46.68 65.01C41.48 65.01 36.28 65.01 31.07 65.01C29.89 65.01 29.25 64.35 29.25 63.16C29.25 61.11 29.24 59.05 29.25 57C29.25 55.93 29.9 55.26 30.98 55.26C36.24 55.26 41.51 55.26 46.78 55.26C46.88 55.26 46.98 55.27 47.11 55.28L47.11 55.28Z" fill="#FFFFFF" fill-opacity="1.000000" fill-rule="nonzero"/>
		<path id="Vector" d="M68.22 55.28L68.22 58.47L50.39 58.47L50.39 55.28L68.22 55.28Z" fill="#FFFFFF" fill-opacity="1.000000" fill-rule="nonzero"/>
		<path id="Vector" d="M50.39 61.76L53.6 61.76L53.6 64.98L50.39 64.98L50.39 61.76Z" fill="#FFFFFF" fill-opacity="1.000000" fill-rule="nonzero"/>
		<path id="Vector" d="M56.91 61.77L60.09 61.77L60.09 64.98L56.91 64.98L56.91 61.77Z" fill="#FFFFFF" fill-opacity="1.000000" fill-rule="nonzero"/>
		<path id="Vector" d="M53.65 16.26C58.13 16.27 61.76 19.91 61.75 24.39C61.74 28.88 58.08 32.52 53.59 32.5C49.12 32.49 45.47 28.82 45.49 24.37C45.51 19.87 49.15 16.24 53.65 16.26L53.65 16.26ZM53.62 29.24C56.31 29.25 58.49 27.07 58.49 24.39C58.5 21.71 56.32 19.51 53.64 19.5C50.95 19.49 48.75 21.68 48.75 24.38C48.74 27.06 50.93 29.24 53.62 29.24L53.62 29.24Z" fill="#FFFFFF" fill-opacity="1.000000" fill-rule="nonzero"/>
	</g>
</svg>
