<svg width="77.498535" height="77.319580" viewBox="0 0 77.4985 77.3196" fill="none" xmlns="http://www.w3.org/2000/svg" xmlns:xlink="http://www.w3.org/1999/xlink">
	<desc>
			Created with Pixso.
	</desc>
	<defs/>
	<path id="Vector" d="M0.25 36.51C0.29 36.45 0.35 36.39 0.37 36.31C0.48 35.87 0.76 35.58 1.13 35.36C1.36 35.23 1.58 35.11 1.81 34.99C10.16 30.57 18.51 26.15 26.85 21.72C27.39 21.44 27.86 21.45 28.39 21.74C30.98 23.17 33.58 24.59 36.18 26.01C40.8 28.53 45.42 31.06 50.04 33.59C51.38 34.32 52.73 35.06 54.09 35.78C54.72 36.12 55.05 36.62 55.05 37.34C55.05 38.11 55.04 38.88 55.04 39.65C55.04 46.26 55.04 52.87 55.04 59.49C55.04 60.18 55.03 60.86 55.06 61.55C55.09 62.42 54.71 63 53.94 63.4C50.76 65.07 47.58 66.75 44.41 68.44C40.03 70.77 35.65 73.1 31.28 75.43C30.49 75.85 29.71 76.28 28.92 76.69C28.64 76.83 28.34 76.94 28.05 77.06L27.5 77.06C27.16 76.89 26.81 76.75 26.49 76.55C24.89 75.54 23.29 74.53 21.68 73.52C15.25 69.46 8.81 65.42 2.38 61.37C1.89 61.06 1.41 60.75 0.92 60.45C0.64 60.27 0.44 60.05 0.36 59.71C0.34 59.63 0.29 59.55 0.25 59.47C0.25 53.23 0.25 47 0.25 40.76C0.27 40.71 0.3 40.65 0.3 40.6C0.31 40.29 0.31 39.99 0.3 39.69C0.3 39.64 0.27 39.58 0.25 39.53C0.25 38.52 0.25 37.52 0.25 36.51L0.25 36.51ZM28.78 74.01C29.01 73.89 29.19 73.81 29.36 73.72C33.54 71.49 37.72 69.25 41.91 67.02C45.32 65.2 48.72 63.38 52.14 61.57C52.57 61.34 52.77 61.04 52.75 60.55C52.72 59.83 52.74 59.11 52.74 58.39C52.74 52.2 52.74 46.01 52.74 39.82C52.74 39.61 52.73 39.41 52.72 39.2C52.72 39.12 52.69 39.05 52.67 38.92C52.47 39.02 52.29 39.1 52.13 39.19C50.61 40.02 49.09 40.86 47.58 41.7C47.22 41.89 46.86 42.09 46.5 42.28C46.16 42.46 45.97 42.73 45.96 43.12C45.96 43.35 45.97 43.59 45.97 43.82C45.97 45.99 45.97 48.15 45.97 50.31C45.97 50.45 45.96 50.58 45.95 50.71C45.91 51.18 45.68 51.51 45.27 51.73C44.05 52.39 42.84 53.07 41.63 53.73C40.74 54.21 39.85 54.7 38.95 55.16C38.17 55.55 37.44 55.18 37.28 54.33C37.23 54.06 37.23 53.78 37.23 53.51C37.23 51.56 37.24 49.61 37.24 47.66C37.24 47.58 37.22 47.51 37.21 47.4C37.08 47.46 36.98 47.51 36.88 47.56C36.3 47.87 35.73 48.19 35.15 48.5C33.18 49.59 31.21 50.68 29.23 51.76C28.91 51.94 28.77 52.18 28.74 52.52C28.73 52.69 28.73 52.87 28.73 53.04C28.72 59.8 28.72 66.56 28.72 73.31C28.72 73.52 28.75 73.74 28.78 74.01L28.78 74.01ZM2.62 38.55C2.62 38.73 2.62 38.83 2.62 38.93C2.61 45.33 2.6 51.73 2.59 58.13C2.59 58.65 2.77 59.06 3.25 59.32C3.28 59.33 3.31 59.35 3.33 59.37C7.51 61.98 11.69 64.6 15.86 67.22C19.25 69.34 22.64 71.46 26.02 73.58C26.11 73.64 26.21 73.69 26.35 73.77C26.37 73.46 26.39 73.2 26.39 72.95C26.4 66.19 26.4 59.44 26.4 52.68C26.4 52.58 26.4 52.47 26.4 52.37C26.39 52.1 26.27 51.88 26.05 51.72C25.93 51.64 25.81 51.57 25.68 51.5C20.99 48.85 16.29 46.21 11.59 43.56C8.85 42.02 6.11 40.48 3.37 38.93C3.15 38.81 2.92 38.7 2.62 38.55L2.62 38.55ZM35.87 45.36C35.73 45.28 35.65 45.22 35.56 45.18C35.12 44.94 34.68 44.7 34.24 44.46C28.67 41.44 23.1 38.43 17.53 35.42C15.84 34.5 14.14 33.59 12.45 32.67C12.04 32.45 11.67 32.42 11.24 32.65C8.92 33.9 6.58 35.12 4.25 36.35C4.18 36.39 4.1 36.44 4.01 36.5C4.18 36.7 4.39 36.81 4.59 36.92C9.04 39.44 13.49 41.96 17.94 44.48C20.96 46.19 23.99 47.9 27.01 49.61C27.39 49.82 27.74 49.84 28.11 49.63C28.46 49.43 28.82 49.25 29.17 49.06C31.23 47.94 33.29 46.83 35.36 45.71C35.52 45.62 35.67 45.5 35.87 45.36ZM20.96 27.54C21.16 27.66 21.28 27.75 21.41 27.82C29 31.97 36.59 36.11 44.18 40.26C44.62 40.5 45 40.5 45.42 40.26C46.56 39.64 47.71 39.03 48.86 38.41C49.52 38.05 50.19 37.69 50.85 37.32C51.03 37.22 51.21 37.13 51.36 36.96C51.25 36.89 51.16 36.84 51.07 36.79C50.15 36.28 49.22 35.78 48.3 35.27C42.07 31.87 35.85 28.48 29.63 25.08C29.12 24.8 28.6 24.52 28.09 24.25C27.73 24.06 27.4 24.04 27.01 24.25C25.12 25.29 23.22 26.31 21.31 27.34C21.22 27.39 21.12 27.45 20.96 27.54L20.96 27.54ZM39.61 52.08C39.7 52.05 39.76 52.04 39.81 52.01C40.97 51.37 42.13 50.74 43.29 50.1C43.43 50.02 43.53 49.91 43.57 49.75C43.6 49.61 43.63 49.45 43.63 49.3C43.63 47.26 43.63 45.22 43.63 43.18C43.63 42.82 43.47 42.55 43.18 42.35C43.01 42.24 42.83 42.14 42.65 42.04C41.09 41.18 39.52 40.33 37.96 39.48C31.77 36.1 25.59 32.72 19.4 29.35C19.19 29.23 18.99 29.12 18.77 29.02C18.56 28.92 18.36 28.92 18.13 29.04C16.97 29.67 15.8 30.29 14.64 30.92C14.58 30.95 14.53 31 14.45 31.06C14.58 31.13 14.67 31.19 14.77 31.24C16.93 32.41 19.1 33.57 21.27 34.73C26.98 37.79 32.7 40.85 38.41 43.92C38.58 44.01 38.75 44.11 38.91 44.22C39.28 44.5 39.52 44.87 39.55 45.33C39.57 45.69 39.56 46.05 39.56 46.41C39.56 48.02 39.56 49.63 39.56 51.23C39.56 51.51 39.59 51.78 39.61 52.08L39.61 52.08Z" fill="#2B2862" fill-opacity="1.000000" fill-rule="nonzero"/>
	<path id="Vector" d="M0.37 36.31C0.48 35.87 0.76 35.58 1.13 35.36C1.36 35.23 1.58 35.11 1.81 34.99C10.16 30.57 18.51 26.15 26.85 21.72C27.39 21.44 27.86 21.45 28.39 21.74C30.98 23.17 33.58 24.59 36.18 26.01C40.8 28.53 45.42 31.06 50.04 33.59C51.38 34.32 52.73 35.06 54.09 35.78C54.72 36.12 55.05 36.62 55.05 37.34C55.05 38.11 55.04 38.88 55.04 39.65C55.04 46.26 55.04 52.87 55.04 59.49C55.04 60.18 55.03 60.86 55.06 61.55C55.09 62.42 54.71 63 53.94 63.4C50.76 65.07 47.58 66.75 44.41 68.44C40.03 70.77 35.65 73.1 31.28 75.43C30.49 75.85 29.71 76.28 28.92 76.69C28.64 76.83 28.34 76.94 28.05 77.06L27.5 77.06C27.16 76.89 26.81 76.75 26.49 76.55C24.89 75.54 23.29 74.53 21.68 73.52C15.25 69.46 8.81 65.42 2.38 61.37C1.89 61.06 1.41 60.75 0.92 60.45C0.64 60.27 0.44 60.05 0.36 59.71C0.34 59.63 0.29 59.55 0.25 59.47C0.25 53.23 0.25 47 0.25 40.76C0.27 40.71 0.3 40.65 0.3 40.6C0.31 40.29 0.31 39.99 0.3 39.69C0.3 39.64 0.27 39.58 0.25 39.53C0.25 38.52 0.25 37.52 0.25 36.51L0.25 36.51C0.29 36.45 0.35 36.39 0.37 36.31ZM29.36 73.72C33.54 71.49 37.72 69.25 41.91 67.02C45.32 65.2 48.72 63.38 52.14 61.57C52.57 61.34 52.77 61.04 52.75 60.55C52.72 59.83 52.74 59.11 52.74 58.39C52.74 52.2 52.74 46.01 52.74 39.82C52.74 39.61 52.73 39.41 52.72 39.2C52.72 39.12 52.69 39.05 52.67 38.92C52.47 39.02 52.29 39.1 52.13 39.19C50.61 40.02 49.09 40.86 47.58 41.7C47.22 41.89 46.86 42.09 46.5 42.28C46.16 42.46 45.97 42.73 45.96 43.12C45.96 43.35 45.97 43.59 45.97 43.82C45.97 45.99 45.97 48.15 45.97 50.31C45.97 50.45 45.96 50.58 45.95 50.71C45.91 51.18 45.68 51.51 45.27 51.73C44.05 52.39 42.84 53.07 41.63 53.73C40.74 54.21 39.85 54.7 38.95 55.16C38.17 55.55 37.44 55.18 37.28 54.33C37.23 54.06 37.23 53.78 37.23 53.51C37.23 51.56 37.24 49.61 37.24 47.66C37.24 47.58 37.22 47.51 37.21 47.4C37.08 47.46 36.98 47.51 36.88 47.56C36.3 47.87 35.73 48.19 35.15 48.5C33.18 49.59 31.21 50.68 29.23 51.76C28.91 51.94 28.77 52.18 28.74 52.52C28.73 52.69 28.73 52.87 28.73 53.04C28.72 59.8 28.72 66.56 28.72 73.31C28.72 73.52 28.75 73.74 28.78 74.01L28.78 74.01C29.01 73.89 29.19 73.81 29.36 73.72ZM2.62 38.93C2.61 45.33 2.6 51.73 2.59 58.13C2.59 58.65 2.77 59.06 3.25 59.32C3.28 59.33 3.31 59.35 3.33 59.37C7.51 61.98 11.69 64.6 15.86 67.22C19.25 69.34 22.64 71.46 26.02 73.58C26.11 73.64 26.21 73.69 26.35 73.77C26.37 73.46 26.39 73.2 26.39 72.95C26.4 66.19 26.4 59.44 26.4 52.68C26.4 52.58 26.4 52.47 26.4 52.37C26.39 52.1 26.27 51.88 26.05 51.72C25.93 51.64 25.81 51.57 25.68 51.5C20.99 48.85 16.29 46.21 11.59 43.56C8.85 42.02 6.11 40.48 3.37 38.93C3.15 38.81 2.92 38.7 2.62 38.55L2.62 38.55C2.62 38.73 2.62 38.83 2.62 38.93ZM35.56 45.18C35.12 44.94 34.68 44.7 34.24 44.46C28.67 41.44 23.1 38.43 17.53 35.42C15.84 34.5 14.14 33.59 12.45 32.67C12.04 32.45 11.67 32.42 11.24 32.65C8.92 33.9 6.58 35.12 4.25 36.35C4.18 36.39 4.1 36.44 4.01 36.5C4.18 36.7 4.39 36.81 4.59 36.92C9.04 39.44 13.49 41.96 17.94 44.48C20.96 46.19 23.99 47.9 27.01 49.61C27.39 49.82 27.74 49.84 28.11 49.63C28.46 49.43 28.82 49.25 29.17 49.06C31.23 47.94 33.29 46.83 35.36 45.71C35.52 45.62 35.67 45.5 35.87 45.36C35.73 45.28 35.65 45.22 35.56 45.18ZM21.41 27.82C29 31.97 36.59 36.11 44.18 40.26C44.62 40.5 45 40.5 45.42 40.26C46.56 39.64 47.71 39.03 48.86 38.41C49.52 38.05 50.19 37.69 50.85 37.32C51.03 37.22 51.21 37.13 51.36 36.96C51.25 36.89 51.16 36.84 51.07 36.79C50.15 36.28 49.22 35.78 48.3 35.27C42.07 31.87 35.85 28.48 29.63 25.08C29.12 24.8 28.6 24.52 28.09 24.25C27.73 24.06 27.4 24.04 27.01 24.25C25.12 25.29 23.22 26.31 21.31 27.34C21.22 27.39 21.12 27.45 20.96 27.54L20.96 27.54C21.16 27.66 21.28 27.75 21.41 27.82ZM39.81 52.01C40.97 51.37 42.13 50.74 43.29 50.1C43.43 50.02 43.53 49.91 43.57 49.75C43.6 49.61 43.63 49.45 43.63 49.3C43.63 47.26 43.63 45.22 43.63 43.18C43.63 42.82 43.47 42.55 43.18 42.35C43.01 42.24 42.83 42.14 42.65 42.04C41.09 41.18 39.52 40.33 37.96 39.48C31.77 36.1 25.59 32.72 19.4 29.35C19.19 29.23 18.99 29.12 18.77 29.02C18.56 28.92 18.36 28.92 18.13 29.04C16.97 29.67 15.8 30.29 14.64 30.92C14.58 30.95 14.53 31 14.45 31.06C14.58 31.13 14.67 31.19 14.77 31.24C16.93 32.41 19.1 33.57 21.27 34.73C26.98 37.79 32.7 40.85 38.41 43.92C38.58 44.01 38.75 44.11 38.91 44.22C39.28 44.5 39.52 44.87 39.55 45.33C39.57 45.69 39.56 46.05 39.56 46.41C39.56 48.02 39.56 49.63 39.56 51.23C39.56 51.51 39.59 51.78 39.61 52.08L39.61 52.08C39.7 52.05 39.76 52.04 39.81 52.01Z" stroke="#2B2862" stroke-opacity="1.000000" stroke-width="0.500000"/>
	<path id="Vector" d="M65.32 0.31C68.68 0.35 71.37 1.33 73.62 3.43C75.4 5.09 76.52 7.15 77.02 9.53C77.1 9.92 77.13 10.32 77.17 10.72C77.37 12.45 77.16 14.15 76.72 15.83C76.32 17.36 75.75 18.83 75.18 20.3C73.59 24.42 71.66 28.37 69.52 32.23C68.69 33.72 67.82 35.2 66.96 36.68C66.84 36.9 66.69 37.12 66.52 37.31C66.18 37.69 65.74 37.76 65.26 37.62C65 37.54 64.82 37.37 64.69 37.14C63.49 35.06 62.26 33 61.09 30.91C59.39 27.84 57.87 24.69 56.58 21.42C55.87 19.63 55.23 17.82 54.72 15.96C54.33 14.48 54.1 12.97 54.14 11.43C54.22 8.6 55.24 6.14 57.13 4.04C58.86 2.14 61 0.94 63.55 0.49C64.23 0.38 64.93 0.35 65.32 0.31L65.32 0.31ZM65.67 34.3C65.74 34.2 65.79 34.13 65.83 34.06C67.29 31.43 68.72 28.78 70.05 26.07C71.03 24.09 71.96 22.08 72.76 20.01C73.49 18.13 74.16 16.23 74.59 14.25C74.9 12.86 74.99 11.45 74.69 10.04C74.31 8.29 73.58 6.71 72.32 5.43C69.93 2.99 67 2.23 63.72 2.83C61.06 3.31 59.08 4.86 57.69 7.16C56.63 8.92 56.26 10.82 56.56 12.86C56.78 14.35 57.07 15.83 57.54 17.26C58.29 19.62 59.23 21.9 60.27 24.14C61.84 27.54 63.65 30.81 65.51 34.06C65.55 34.13 65.6 34.19 65.67 34.3L65.67 34.3Z" fill="#2B2862" fill-opacity="1.000000" fill-rule="nonzero"/>
	<path id="Vector" d="M73.62 3.43C75.4 5.09 76.52 7.15 77.02 9.53C77.1 9.92 77.13 10.32 77.17 10.72C77.37 12.45 77.16 14.15 76.72 15.83C76.32 17.36 75.75 18.83 75.18 20.3C73.59 24.42 71.66 28.37 69.52 32.23C68.69 33.72 67.82 35.2 66.96 36.68C66.84 36.9 66.69 37.12 66.52 37.31C66.18 37.69 65.74 37.76 65.26 37.62C65 37.54 64.82 37.37 64.69 37.14C63.49 35.06 62.26 33 61.09 30.91C59.39 27.84 57.87 24.69 56.58 21.42C55.87 19.63 55.23 17.82 54.72 15.96C54.33 14.48 54.1 12.97 54.14 11.43C54.22 8.6 55.24 6.14 57.13 4.04C58.86 2.14 61 0.94 63.55 0.49C64.23 0.38 64.93 0.35 65.32 0.31L65.32 0.31C68.68 0.35 71.37 1.33 73.62 3.43ZM65.83 34.06C67.29 31.43 68.72 28.78 70.05 26.07C71.03 24.09 71.96 22.08 72.76 20.01C73.49 18.13 74.16 16.23 74.59 14.25C74.9 12.86 74.99 11.45 74.69 10.04C74.31 8.29 73.58 6.71 72.32 5.43C69.93 2.99 67 2.23 63.72 2.83C61.06 3.31 59.08 4.86 57.69 7.16C56.63 8.92 56.26 10.82 56.56 12.86C56.78 14.35 57.07 15.83 57.54 17.26C58.29 19.62 59.23 21.9 60.27 24.14C61.84 27.54 63.65 30.81 65.51 34.06C65.55 34.13 65.6 34.19 65.67 34.3L65.67 34.3C65.74 34.2 65.79 34.13 65.83 34.06Z" stroke="#2B2862" stroke-opacity="1.000000" stroke-width="0.500000"/>
	<path id="Vector" d="M47.21 9.47C46.97 9.4 11.75 9.38 11.28 9.45C11.27 9.56 11.25 9.69 11.25 9.82C11.25 11.67 11.25 13.51 11.25 15.36C11.25 18.78 11.25 22.21 11.25 25.63C11.25 25.86 11.25 26.09 11.21 26.31C11.08 26.92 10.65 27.23 10.02 27.18C9.43 27.14 8.99 26.73 8.93 26.16C8.92 26.06 8.92 25.95 8.92 25.85C8.92 20.12 8.92 14.39 8.93 8.65C8.93 8.38 8.95 8.1 9 7.83C9.07 7.45 9.32 7.22 9.69 7.13C9.86 7.09 10.04 7.08 10.21 7.06C10.37 7.05 10.54 7.06 10.7 7.06C22.7 7.06 34.69 7.06 46.69 7.06C46.81 7.06 46.93 7.06 47.06 7.05C47.18 7.03 47.21 6.92 47.14 6.82C47.09 6.76 47.04 6.71 46.99 6.66C45.67 5.34 44.35 4.02 43.03 2.7C42.85 2.52 42.66 2.34 42.5 2.14C42.13 1.68 42.15 1.13 42.55 0.69C42.94 0.26 43.51 0.17 44 0.48C44.13 0.57 44.26 0.68 44.37 0.79C46.5 2.92 48.63 5.04 50.75 7.17C50.9 7.33 51.05 7.51 51.17 7.69C51.4 8.03 51.39 8.39 51.17 8.73C51.04 8.92 50.9 9.09 50.74 9.25C48.64 11.36 46.54 13.46 44.43 15.56C44.27 15.72 44.1 15.87 43.91 15.99C43.5 16.24 43.05 16.17 42.64 15.82C42.27 15.5 42.13 15.07 42.32 14.63C42.41 14.42 42.55 14.22 42.71 14.05C44.01 12.74 45.32 11.44 46.62 10.13C46.78 9.96 46.95 9.79 47.11 9.62C47.15 9.57 47.17 9.52 47.21 9.47Z" fill="#2B2862" fill-opacity="1.000000" fill-rule="nonzero"/>
	<path id="Vector" d="M11.28 9.45C11.27 9.56 11.25 9.69 11.25 9.82C11.25 11.67 11.25 13.51 11.25 15.36C11.25 18.78 11.25 22.21 11.25 25.63C11.25 25.86 11.25 26.09 11.21 26.31C11.08 26.92 10.65 27.23 10.02 27.18C9.43 27.14 8.99 26.73 8.93 26.16C8.92 26.06 8.92 25.95 8.92 25.85C8.92 20.12 8.92 14.39 8.93 8.65C8.93 8.38 8.95 8.1 9 7.83C9.07 7.45 9.32 7.22 9.69 7.13C9.86 7.09 10.04 7.08 10.21 7.06C10.37 7.05 10.54 7.06 10.7 7.06C22.7 7.06 34.69 7.06 46.69 7.06C46.81 7.06 46.93 7.06 47.06 7.05C47.18 7.03 47.21 6.92 47.14 6.82C47.09 6.76 47.04 6.71 46.99 6.66C45.67 5.34 44.35 4.02 43.03 2.7C42.85 2.52 42.66 2.34 42.5 2.14C42.13 1.68 42.15 1.13 42.55 0.69C42.94 0.26 43.51 0.17 44 0.48C44.13 0.57 44.26 0.68 44.37 0.79C46.5 2.92 48.63 5.04 50.75 7.17C50.9 7.33 51.05 7.51 51.17 7.69C51.4 8.03 51.39 8.39 51.17 8.73C51.04 8.92 50.9 9.09 50.74 9.25C48.64 11.36 46.54 13.46 44.43 15.56C44.27 15.72 44.1 15.87 43.91 15.99C43.5 16.24 43.05 16.17 42.64 15.82C42.27 15.5 42.13 15.07 42.32 14.63C42.41 14.42 42.55 14.22 42.71 14.05C44.01 12.74 45.32 11.44 46.62 10.13C46.78 9.96 46.95 9.79 47.11 9.62C47.15 9.57 47.17 9.52 47.21 9.47C46.97 9.4 11.75 9.38 11.28 9.45Z" stroke="#2B2862" stroke-opacity="1.000000" stroke-width="0.500000"/>
	<path id="Vector" d="M68.07 44.95C67.97 45.01 67.92 45.03 67.87 45.07C67.71 45.21 67.55 45.35 67.4 45.5C66.14 46.76 64.89 48.01 63.63 49.26C63.45 49.44 63.26 49.61 63.04 49.74C62.37 50.13 61.56 49.77 61.37 49.02C61.31 48.8 61.33 48.58 61.44 48.39C61.56 48.18 61.69 47.96 61.86 47.79C64.01 45.63 66.17 43.48 68.32 41.33C68.44 41.21 68.57 41.11 68.7 41.02C69.08 40.76 69.47 40.76 69.85 41.03C69.97 41.12 70.09 41.22 70.2 41.32C72.35 43.48 74.51 45.63 76.66 47.78C76.86 47.99 77.04 48.21 77.13 48.49C77.26 48.9 77.14 49.24 76.86 49.54C76.57 49.85 76.23 49.98 75.81 49.88C75.5 49.8 75.25 49.62 75.03 49.4C73.81 48.18 72.6 46.96 71.38 45.75C71.15 45.51 70.91 45.29 70.67 45.07C70.61 45.01 70.54 44.97 70.43 44.89C70.43 45.05 70.42 45.15 70.42 45.26C70.42 46.31 70.42 47.35 70.42 48.4C70.42 56.71 70.42 65.03 70.42 73.35C70.42 73.65 70.39 73.96 70.35 74.26C70.29 74.68 70.05 74.97 69.62 75.03C69.24 75.08 68.85 75.11 68.46 75.11C63.44 75.12 58.41 75.12 53.39 75.12C51.79 75.12 50.19 75.12 48.59 75.12C48.34 75.12 48.08 75.11 47.83 75.08C47.39 75.02 47.01 74.84 46.87 74.38C46.77 74.06 46.78 73.73 46.9 73.41C47.01 73.11 47.25 72.93 47.55 72.85C47.77 72.8 48.01 72.77 48.25 72.77C52.06 72.76 55.87 72.76 59.69 72.76C62.33 72.76 64.98 72.76 67.62 72.76L68.04 72.76C68.06 72.66 68.08 72.59 68.08 72.51C68.09 72.42 68.08 72.32 68.08 72.23C68.08 63.29 68.08 54.35 68.08 45.41C68.08 45.27 68.07 45.13 68.07 44.95L68.07 44.95Z" fill="#2B2862" fill-opacity="1.000000" fill-rule="nonzero"/>
	<path id="Vector" d="M67.87 45.07C67.71 45.21 67.55 45.35 67.4 45.5C66.14 46.76 64.89 48.01 63.63 49.26C63.45 49.44 63.26 49.61 63.04 49.74C62.37 50.13 61.56 49.77 61.37 49.02C61.31 48.8 61.33 48.58 61.44 48.39C61.56 48.18 61.69 47.96 61.86 47.79C64.01 45.63 66.17 43.48 68.32 41.33C68.44 41.21 68.57 41.11 68.7 41.02C69.08 40.76 69.47 40.76 69.85 41.03C69.97 41.12 70.09 41.22 70.2 41.32C72.35 43.48 74.51 45.63 76.66 47.78C76.86 47.99 77.04 48.21 77.13 48.49C77.26 48.9 77.14 49.24 76.86 49.54C76.57 49.85 76.23 49.98 75.81 49.88C75.5 49.8 75.25 49.62 75.03 49.4C73.81 48.18 72.6 46.96 71.38 45.75C71.15 45.51 70.91 45.29 70.67 45.07C70.61 45.01 70.54 44.97 70.43 44.89C70.43 45.05 70.42 45.15 70.42 45.26C70.42 46.31 70.42 47.35 70.42 48.4C70.42 56.71 70.42 65.03 70.42 73.35C70.42 73.65 70.39 73.96 70.35 74.26C70.29 74.68 70.05 74.97 69.62 75.03C69.24 75.08 68.85 75.11 68.46 75.11C63.44 75.12 58.41 75.12 53.39 75.12C51.79 75.12 50.19 75.12 48.59 75.12C48.34 75.12 48.08 75.11 47.83 75.08C47.39 75.02 47.01 74.84 46.87 74.38C46.77 74.06 46.78 73.73 46.9 73.41C47.01 73.11 47.25 72.93 47.55 72.85C47.77 72.8 48.01 72.77 48.25 72.77C52.06 72.76 55.87 72.76 59.69 72.76C62.33 72.76 64.98 72.76 67.62 72.76L68.04 72.76C68.06 72.66 68.08 72.59 68.08 72.51C68.09 72.42 68.08 72.32 68.08 72.23C68.08 63.29 68.08 54.35 68.08 45.41C68.08 45.27 68.07 45.13 68.07 44.95L68.07 44.95C67.97 45.01 67.92 45.03 67.87 45.07Z" stroke="#2B2862" stroke-opacity="1.000000" stroke-width="0.500000"/>
	<path id="Vector" d="M23.41 57.62C23.42 58.33 22.68 58.95 22.03 58.79C21.75 58.72 21.47 58.58 21.22 58.44C19.02 57.17 16.82 55.88 14.63 54.61C11.94 53.05 9.26 51.49 6.57 49.93C6.42 49.84 6.26 49.74 6.12 49.62C5.57 49.13 5.61 48.25 6.21 47.83C6.56 47.58 6.95 47.48 7.37 47.68C7.51 47.74 7.65 47.8 7.78 47.88C12.68 50.72 17.58 53.56 22.48 56.41C22.7 56.54 22.9 56.7 23.08 56.88C23.29 57.09 23.39 57.36 23.41 57.62L23.41 57.62Z" fill="#2B2862" fill-opacity="1.000000" fill-rule="nonzero"/>
	<path id="Vector" d="M22.03 58.79C21.75 58.72 21.47 58.58 21.22 58.44C19.02 57.17 16.82 55.88 14.63 54.61C11.94 53.05 9.26 51.49 6.57 49.93C6.42 49.84 6.26 49.74 6.12 49.62C5.57 49.13 5.61 48.25 6.21 47.83C6.56 47.58 6.95 47.48 7.37 47.68C7.51 47.74 7.65 47.8 7.78 47.88C12.68 50.72 17.58 53.56 22.48 56.41C22.7 56.54 22.9 56.7 23.08 56.88C23.29 57.09 23.39 57.36 23.41 57.62L23.41 57.62C23.42 58.33 22.68 58.95 22.03 58.79Z" stroke="#2B2862" stroke-opacity="1.000000" stroke-width="0.500000"/>
	<path id="Vector" d="M22.16 64.51C21.81 64.52 21.5 64.37 21.21 64.2C19.91 63.45 18.6 62.69 17.3 61.94C13.67 59.83 10.04 57.72 6.41 55.61C6.21 55.49 6.02 55.34 5.87 55.16C5.46 54.68 5.55 53.95 6.07 53.59C6.43 53.34 6.83 53.23 7.26 53.41C7.45 53.49 7.63 53.58 7.81 53.68C12.68 56.54 17.54 59.39 22.41 62.25C22.58 62.36 22.75 62.48 22.9 62.61C23.28 62.94 23.38 63.32 23.23 63.71C23.04 64.2 22.63 64.5 22.16 64.51L22.16 64.51Z" fill="#2B2862" fill-opacity="1.000000" fill-rule="nonzero"/>
	<path id="Vector" d="M21.21 64.2C19.91 63.45 18.6 62.69 17.3 61.94C13.67 59.83 10.04 57.72 6.41 55.61C6.21 55.49 6.02 55.34 5.87 55.16C5.46 54.68 5.55 53.95 6.07 53.59C6.43 53.34 6.83 53.23 7.26 53.41C7.45 53.49 7.63 53.58 7.81 53.68C12.68 56.54 17.54 59.39 22.41 62.25C22.58 62.36 22.75 62.48 22.9 62.61C23.28 62.94 23.38 63.32 23.23 63.71C23.04 64.2 22.63 64.5 22.16 64.51L22.16 64.51C21.81 64.52 21.5 64.37 21.21 64.2Z" stroke="#2B2862" stroke-opacity="1.000000" stroke-width="0.500000"/>
	<path id="Vector" d="M59.27 11.52C59.27 7.91 62.39 5.19 65.65 5.18C69.03 5.18 72.05 8 72.04 11.62C72.03 15.11 69.16 17.97 65.67 17.98C62.11 17.98 59.28 15.12 59.27 11.52ZM65.64 15.68C67.63 15.73 69.74 14 69.75 11.59C69.75 9.2 67.73 7.52 65.67 7.52C63.44 7.52 61.56 9.38 61.56 11.57C61.56 13.83 63.4 15.68 65.64 15.68Z" fill="#2B2862" fill-opacity="1.000000" fill-rule="nonzero"/>
	<path id="Vector" d="M65.65 5.18C69.03 5.18 72.05 8 72.04 11.62C72.03 15.11 69.16 17.97 65.67 17.98C62.11 17.98 59.28 15.12 59.27 11.52C59.27 7.91 62.39 5.19 65.65 5.18ZM69.75 11.59C69.75 9.2 67.73 7.52 65.67 7.52C63.44 7.52 61.56 9.38 61.56 11.57C61.56 13.83 63.4 15.68 65.64 15.68C67.63 15.73 69.74 14 69.75 11.59Z" stroke="#2B2862" stroke-opacity="1.000000" stroke-width="0.500000"/>
</svg>
