<svg width="77.975586" height="78.000000" viewBox="0 0 77.9756 78" fill="none" xmlns="http://www.w3.org/2000/svg" xmlns:xlink="http://www.w3.org/1999/xlink">
	<desc>
			Created with Pixso.
	</desc>
	<defs>
		<clipPath id="clip128_6988">
			<rect id="_Слой_1" rx="0.000000" width="76.975586" height="77.000000" transform="translate(0.500000 0.500000)" fill="white" fill-opacity="0"/>
		</clipPath>
	</defs>
	<rect id="_Слой_1" rx="0.000000" width="76.975586" height="77.000000" transform="translate(0.500000 0.500000)" fill="#FFFFFF" fill-opacity="0"/>
	<g clip-path="url(#clip128_6988)">
		<path id="Vector" d="M0 67.73C0.42 66.57 0.68 65.32 1.29 64.27C2.97 61.39 5.57 59.92 8.9 59.78C10.22 59.73 11.55 59.78 12.99 59.78C12.99 59.45 12.99 59.16 12.99 58.88C12.99 56.25 12.99 53.63 12.99 51C12.99 49.83 13.45 49.38 14.61 49.38C17.86 49.37 21.11 49.37 24.35 49.38C25.52 49.38 25.98 49.83 25.98 50.99C25.99 53.59 25.98 56.19 25.98 58.79C25.98 59.08 25.98 59.38 25.98 59.72L32.48 59.72C32.48 58.1 32.48 56.52 32.48 54.93C32.48 53.57 32.47 52.22 32.48 50.87C32.5 49.86 32.97 49.38 33.99 49.38C37.29 49.37 40.6 49.37 43.9 49.38C45.01 49.38 45.47 49.85 45.47 50.97C45.48 53.86 45.47 56.76 45.47 59.71L50.67 59.71C50.67 59.43 50.67 59.14 50.67 58.85C50.67 56.23 50.67 53.6 50.67 50.98C50.68 49.85 51.13 49.38 52.24 49.38C55.51 49.37 58.79 49.37 62.06 49.38C63.21 49.38 63.66 49.84 63.66 51.02C63.67 53.62 63.66 56.22 63.66 58.82C63.66 59.11 63.66 59.4 63.66 59.77C65.46 59.77 67.19 59.75 68.91 59.78C73.19 59.84 76.72 62.67 77.72 66.82C79.02 72.23 74.96 77.67 69.39 77.94C69.01 77.96 68.63 77.96 68.25 77.96C48.74 77.96 29.22 77.92 9.71 77.99C4.17 78.02 0.56 74.11 0.1 70.22C0.09 70.14 0.03 70.07 -0.01 70C-0.01 69.25 -0.01 68.49 -0.01 67.73L0 67.73ZM38.98 75.36C44.48 75.36 49.97 75.36 55.47 75.36C59.93 75.36 64.4 75.39 68.87 75.36C73.07 75.33 76.06 71.58 75.21 67.48C74.58 64.43 71.92 62.37 68.58 62.37C48.85 62.37 29.11 62.37 9.38 62.37C9.16 62.37 8.95 62.37 8.73 62.38C5.43 62.54 2.71 65.31 2.6 68.6C2.48 72.38 5.39 75.36 9.26 75.36C19.17 75.37 29.07 75.36 38.98 75.37L38.98 75.36ZM18.16 54.54L18.16 52.03L15.64 52.03L15.64 59.71L23.32 59.71L23.32 52.02L20.77 52.02L20.77 54.54L18.16 54.54ZM35.14 52.01L35.14 59.71L42.81 59.71L42.81 52.02L40.26 52.02L40.26 54.51L37.65 54.51L37.65 52.01L35.14 52.01L35.14 52.01ZM61.02 59.73L61.02 52.03L58.43 52.03L58.43 54.53L55.85 54.53L55.85 52.04L53.31 52.04L53.31 59.74L61.02 59.74L61.02 59.73Z" fill="#FFFFFF" fill-opacity="1.000000" fill-rule="nonzero"/>
		<path id="Vector" d="M42.07 0C42.52 0.81 42.98 1.63 43.47 2.52C43.68 2.4 44.04 2.18 44.41 1.97C45.35 1.4 45.8 1.44 46.57 2.2C47.65 3.26 48.72 4.34 49.78 5.42C50.51 6.15 50.56 6.61 50.03 7.51C49.82 7.88 49.6 8.25 49.34 8.7C49.91 8.85 50.42 8.97 50.92 9.12C51.6 9.31 51.97 9.76 51.97 10.48C51.97 12.16 51.97 13.84 51.97 15.51C51.97 16.23 51.59 16.68 50.91 16.87C50.42 17.01 49.92 17.13 49.34 17.27C49.6 17.73 49.83 18.15 50.08 18.55C50.54 19.28 50.44 19.92 49.83 20.52C48.71 21.62 47.61 22.74 46.5 23.85C45.9 24.46 45.26 24.55 44.53 24.09C44.15 23.84 43.75 23.62 43.24 23.32C42.99 25.03 42.55 26.52 40.28 25.91C40.28 26.87 40.25 27.7 40.3 28.53C40.31 28.72 40.59 28.93 40.79 29.05C42.1 29.8 42.94 30.93 42.83 32.41C42.69 34.2 43.25 35.65 44.37 36.91C45.55 38.24 45.62 39.5 44.65 40.99C43.94 42.1 43.45 43.35 42.85 44.53C42.41 45.39 41.71 45.68 41.01 45.33C40.28 44.97 40.09 44.26 40.51 43.39C41.11 42.18 41.71 40.97 42.34 39.77C42.6 39.3 42.54 38.96 42.3 38.46C41.51 36.74 40.3 36.12 38.4 36.33C37.42 36.44 36.87 36.71 36.27 37.5C35.42 38.62 35.28 39.55 36.08 40.73C36.64 41.55 37.01 42.5 37.44 43.4C37.86 44.26 37.66 44.98 36.94 45.34C36.25 45.67 35.55 45.41 35.14 44.6C34.32 42.98 33.52 41.35 32.7 39.74C32.4 39.14 32.44 38.6 32.83 38.07C33.11 37.67 33.33 37.23 33.64 36.86C34.72 35.56 35.25 34.15 35.12 32.41C35.01 30.95 35.82 29.81 37.11 29.11C37.56 28.87 37.72 28.61 37.69 28.12C37.65 27.45 37.68 26.77 37.68 26.19C36.89 25.97 35.98 25.97 35.49 25.51C35 25.06 34.92 24.16 34.63 23.38C34.22 23.62 33.78 23.87 33.35 24.13C32.71 24.51 32.11 24.49 31.57 23.96C30.38 22.78 29.2 21.59 28.02 20.4C27.49 19.86 27.46 19.26 27.84 18.62C28.09 18.2 28.33 17.79 28.63 17.28C28.06 17.13 27.55 17.01 27.04 16.87C26.37 16.67 25.99 16.23 25.99 15.51C25.99 13.83 25.99 12.15 25.99 10.47C25.99 9.72 26.4 9.27 27.12 9.09C27.59 8.98 28.06 8.85 28.64 8.7C28.34 8.2 28.06 7.75 27.81 7.3C27.46 6.68 27.51 6.1 28.01 5.59C29.19 4.4 30.37 3.21 31.57 2.03C32.1 1.5 32.7 1.46 33.34 1.84C33.76 2.09 34.17 2.33 34.5 2.53C34.98 1.66 35.43 0.83 35.89 0C37.95 0 40.01 0 42.07 0ZM28.63 11.41L28.63 14.57C29.32 14.75 29.98 14.92 30.63 15.09C31.99 15.46 32.29 16.22 31.57 17.44C31.23 18.02 30.89 18.6 30.6 19.08C31.36 19.89 32.07 20.65 32.8 21.43C33.44 21.05 34.05 20.67 34.69 20.3C35.72 19.71 36.54 20.06 36.85 21.2C37.05 21.92 37.22 22.65 37.4 23.35L40.57 23.35C40.76 22.59 40.92 21.85 41.13 21.13C41.43 20.08 42.25 19.74 43.2 20.26C43.88 20.64 44.54 21.05 45.13 21.39C45.93 20.63 46.66 19.92 47.42 19.19C47.04 18.55 46.66 17.94 46.3 17.3C45.69 16.23 46.04 15.42 47.25 15.11C47.95 14.93 48.65 14.75 49.34 14.58L49.34 11.4C48.62 11.22 47.91 11.05 47.21 10.87C46.06 10.56 45.71 9.74 46.29 8.71C46.66 8.06 47.06 7.42 47.42 6.81C46.64 6.03 45.92 5.31 45.18 4.56C44.54 4.94 43.89 5.33 43.23 5.7C42.24 6.25 41.42 5.91 41.12 4.82C40.91 4.09 40.75 3.36 40.56 2.62L37.41 2.62C37.3 3 37.21 3.36 37.11 3.72C37.02 4.09 36.94 4.46 36.84 4.82C36.53 5.91 35.7 6.25 34.72 5.7C34.06 5.33 33.42 4.93 32.9 4.61C32.09 5.39 31.33 6.11 30.56 6.84C30.92 7.44 31.29 8.04 31.63 8.64C32.26 9.73 31.93 10.54 30.74 10.87C30.04 11.06 29.34 11.23 28.63 11.41L28.63 11.41ZM40.26 33.75C40.24 32.85 40.58 31.88 39.6 31.39C39.24 31.21 38.6 31.25 38.26 31.46C37.39 31.99 37.72 32.91 37.71 33.75L40.26 33.75Z" fill="#FFFFFF" fill-opacity="1.000000" fill-rule="nonzero"/>
		<path id="Vector" d="M0 12.18C0.54 10.72 1.4 9.57 3.02 9.21C3.33 9.14 3.66 9.1 3.98 9.1C10.24 9.09 16.49 9.09 22.74 9.09C22.9 9.09 23.06 9.11 23.29 9.12L23.29 11.69L22.34 11.69C16.41 11.69 10.49 11.69 4.56 11.69C4.29 11.69 4.01 11.66 3.75 11.71C3.05 11.83 2.62 12.26 2.61 12.97C2.6 13.69 3.02 14.13 3.72 14.27C3.98 14.32 4.26 14.29 4.53 14.29C10.43 14.29 16.33 14.29 22.23 14.29L23.17 14.29L23.17 16.86L12.99 16.86C12.99 17.45 12.99 17.98 12.99 18.51C12.99 20.41 13.01 22.3 12.98 24.2C12.97 24.73 13.14 24.98 13.61 25.24C14.84 25.91 15.67 27.03 15.53 28.4C15.34 30.36 16.08 31.88 17.26 33.26C18.27 34.44 18.31 35.53 17.49 36.85C16.75 38.04 16.22 39.35 15.58 40.61C15.13 41.48 14.46 41.78 13.75 41.44C13 41.09 12.81 40.36 13.26 39.45C13.88 38.18 14.53 36.94 15.12 35.66C15.24 35.41 15.22 34.97 15.08 34.73C13.71 32.48 13.69 32.53 11.07 32.46C10.11 32.43 9.63 32.79 9.04 33.51C8.07 34.7 8.02 35.71 8.86 36.95C9.4 37.75 9.76 38.68 10.18 39.55C10.57 40.37 10.36 41.07 9.67 41.43C8.98 41.77 8.27 41.51 7.86 40.71C7.03 39.07 6.17 37.44 5.42 35.76C5.24 35.35 5.37 34.73 5.52 34.26C5.65 33.84 5.98 33.46 6.26 33.1C7.35 31.74 7.99 30.29 7.85 28.44C7.73 26.99 8.61 25.9 9.87 25.15C10.1 25.02 10.37 24.71 10.37 24.48C10.41 22.2 10.39 19.93 10.39 17.66C10.39 17.44 10.39 17.23 10.39 16.89C10.05 16.89 9.74 16.89 9.43 16.89C7.91 16.89 6.39 16.81 4.88 16.9C2.46 17.05 0.81 16.12 0 13.8L0 12.18ZM12.98 29.85C12.94 28.95 13.29 27.97 12.3 27.49C11.94 27.32 11.3 27.35 10.96 27.56C10.1 28.11 10.42 29.02 10.43 29.85L12.98 29.85Z" fill="#FFFFFF" fill-opacity="1.000000" fill-rule="nonzero"/>
		<path id="Vector" d="M54.6 9.12C54.76 9.11 54.89 9.09 55.02 9.09C61.38 9.09 67.74 9.08 74.1 9.1C75.8 9.1 77.27 10.21 77.77 11.79C78.29 13.4 77.78 15.18 76.35 16.1C75.66 16.54 74.76 16.81 73.93 16.85C71.86 16.96 69.77 16.89 67.57 16.89L67.57 18.18C67.57 20.21 67.58 22.24 67.56 24.27C67.55 24.73 67.69 24.97 68.11 25.2C69.38 25.86 70.22 26.99 70.11 28.39C69.97 30.26 70.56 31.78 71.74 33.12C72.85 34.37 72.91 35.57 72 36.99C71.27 38.12 70.77 39.39 70.16 40.6C69.7 41.5 68.99 41.8 68.26 41.41C67.56 41.04 67.4 40.33 67.83 39.45C68.45 38.19 69.1 36.95 69.69 35.67C69.81 35.41 69.69 35.05 69.67 34.73C69.66 34.66 69.58 34.6 69.54 34.53C69.05 33.85 68.69 32.78 68.06 32.59C66.99 32.26 65.76 32.48 64.59 32.49C64.46 32.49 64.29 32.61 64.21 32.72C63.71 33.44 63.21 34.14 62.79 34.89C62.67 35.09 62.74 35.46 62.85 35.69C63.45 36.96 64.1 38.21 64.72 39.47C65.14 40.35 64.97 41.05 64.25 41.42C63.55 41.79 62.84 41.51 62.4 40.65C61.61 39.09 60.85 37.5 60.04 35.94C59.7 35.29 59.71 34.71 60.14 34.13C60.4 33.78 60.6 33.39 60.87 33.05C61.96 31.71 62.57 30.27 62.42 28.46C62.3 27.04 63.11 25.91 64.37 25.23C64.87 24.97 64.98 24.68 64.98 24.17C64.95 21.82 64.96 19.46 64.95 17.11C64.95 17.06 64.92 17.01 64.86 16.89L54.63 16.89L54.63 14.29C54.92 14.29 55.21 14.29 55.49 14.29C61.45 14.29 67.4 14.29 73.36 14.29C73.6 14.29 73.85 14.3 74.09 14.28C74.85 14.22 75.37 13.67 75.36 12.96C75.34 12.29 74.84 11.77 74.12 11.7C73.88 11.68 73.64 11.69 73.39 11.69C67.44 11.69 61.48 11.69 55.53 11.69L54.6 11.69L54.6 9.12L54.6 9.12ZM65 29.84L67.5 29.84C67.7 28.12 67.31 27.31 66.3 27.29C65.29 27.27 64.91 27.99 65 29.84Z" fill="#FFFFFF" fill-opacity="1.000000" fill-rule="nonzero"/>
		<path id="Vector" d="M13.05 64.97C15.16 64.99 16.9 66.76 16.88 68.88C16.87 71.04 15.09 72.79 12.94 72.76C10.82 72.73 9.09 70.97 9.1 68.85C9.11 66.7 10.88 64.96 13.05 64.97L13.05 64.97ZM12.99 67.57C12.3 67.57 11.71 68.14 11.7 68.84C11.68 69.54 12.25 70.14 12.94 70.16C13.67 70.18 14.29 69.58 14.28 68.85C14.28 68.15 13.69 67.57 12.99 67.57L12.99 67.57Z" fill="#FFFFFF" fill-opacity="1.000000" fill-rule="nonzero"/>
		<path id="Vector" d="M26.01 64.97C28.12 64.97 29.88 66.73 29.88 68.85C29.88 71.01 28.12 72.77 25.96 72.76C23.84 72.75 22.1 71 22.09 68.88C22.08 66.73 23.84 64.97 26.01 64.97L26.01 64.97ZM27.28 68.84C27.26 68.14 26.67 67.57 25.98 67.57C25.28 67.58 24.7 68.16 24.69 68.86C24.68 69.59 25.31 70.19 26.03 70.16C26.73 70.13 27.29 69.53 27.28 68.84Z" fill="#FFFFFF" fill-opacity="1.000000" fill-rule="nonzero"/>
		<path id="Vector" d="M39 64.97C41.11 64.97 42.87 66.73 42.87 68.84C42.88 71.01 41.12 72.77 38.96 72.76C36.85 72.75 35.1 71.01 35.09 68.89C35.07 66.73 36.83 64.97 39 64.97L39 64.97ZM40.27 68.88C40.28 68.19 39.71 67.59 39.01 67.57C38.32 67.55 37.71 68.12 37.68 68.81C37.65 69.54 38.26 70.17 38.98 70.16C39.68 70.16 40.26 69.58 40.27 68.88Z" fill="#FFFFFF" fill-opacity="1.000000" fill-rule="nonzero"/>
		<path id="Vector" d="M55.87 68.87C55.86 71.03 54.09 72.78 51.93 72.76C49.81 72.74 48.08 70.99 48.08 68.86C48.08 66.71 49.85 64.96 52.02 64.97C54.13 64.98 55.88 66.75 55.87 68.86L55.87 68.87ZM53.27 68.89C53.28 68.19 52.71 67.6 52.01 67.57C51.32 67.55 50.71 68.11 50.68 68.81C50.65 69.54 51.25 70.16 51.97 70.16C52.67 70.16 53.25 69.58 53.27 68.89Z" fill="#FFFFFF" fill-opacity="1.000000" fill-rule="nonzero"/>
		<path id="Vector" d="M68.86 68.84C68.86 71.01 67.11 72.77 64.95 72.76C62.83 72.75 61.08 71 61.08 68.89C61.07 66.73 62.83 64.97 64.99 64.97C67.11 64.97 68.86 66.73 68.86 68.85L68.86 68.84ZM64.91 70.16C65.6 70.19 66.21 69.64 66.26 68.95C66.31 68.23 65.72 67.59 64.99 67.57C64.29 67.56 63.7 68.13 63.67 68.83C63.65 69.52 64.21 70.13 64.9 70.16L64.91 70.16Z" fill="#FFFFFF" fill-opacity="1.000000" fill-rule="nonzero"/>
		<path id="Vector" d="M38.95 18.19C36.08 18.17 33.76 15.82 33.78 12.94C33.8 10.08 36.17 7.76 39.04 7.79C41.91 7.82 44.21 10.19 44.18 13.08C44.14 15.9 41.79 18.2 38.95 18.19L38.95 18.19ZM39 10.4C37.59 10.38 36.41 11.53 36.39 12.95C36.36 14.39 37.54 15.59 39 15.59C40.4 15.58 41.58 14.4 41.57 12.99C41.57 11.57 40.42 10.41 39 10.4Z" fill="#FFFFFF" fill-opacity="1.000000" fill-rule="nonzero"/>
	</g>
</svg>
