<svg width="75.000000" height="73.690918" viewBox="0 0 75 73.6909" fill="none" xmlns="http://www.w3.org/2000/svg" xmlns:xlink="http://www.w3.org/1999/xlink">
	<desc>
			Created with Pixso.
	</desc>
	<defs>
		<clipPath id="clip128_7002">
			<rect id="_Слой_1" rx="0.000000" width="74.000000" height="72.690910" transform="translate(0.500000 0.500000)" fill="white" fill-opacity="0"/>
		</clipPath>
	</defs>
	<rect id="_Слой_1" rx="0.000000" width="74.000000" height="72.690910" transform="translate(0.500000 0.500000)" fill="#FFFFFF" fill-opacity="0"/>
	<g clip-path="url(#clip128_7002)">
		<path id="Vector" d="M68.47 60.14C68.83 60.45 69.21 60.75 69.55 61.1C70.93 62.49 70.95 64.38 69.59 65.8C68.78 66.65 67.95 67.49 67.1 68.3C65.63 69.72 63.82 69.72 62.34 68.29C61.99 67.95 61.71 67.55 61.47 67.26C60.15 67.8 59.02 68.23 57.91 68.73C57.71 68.82 57.53 69.14 57.49 69.38C57.39 70.06 57.47 70.77 57.3 71.43C56.97 72.73 55.7 73.66 54.35 73.67C53.02 73.69 51.69 73.69 50.36 73.67C48.83 73.65 47.26 72.3 47.38 70.79C47.51 69.16 46.77 68.68 45.42 68.09C44 67.47 43.12 67.41 41.99 68.59C40.88 69.75 39.17 69.62 37.97 68.54C36.95 67.61 35.97 66.63 35.04 65.61C33.87 64.32 33.92 62.54 35.09 61.25C35.48 60.82 36.08 60.41 36.16 59.93C36.23 59.48 35.72 58.94 35.5 58.43C35.21 57.73 35.13 56.77 34.62 56.37C34.14 56 33.2 56.26 32.47 56.16C31.04 55.97 29.87 54.59 29.83 53.04C29.79 51.76 29.79 50.48 29.83 49.2C29.89 47.39 31.31 46.06 33.12 46.04C33.61 46.03 34.09 46.04 34.67 46.04C34.89 45.42 35.1 44.78 35.36 44.16C35.62 43.53 35.94 42.92 36.31 42.14C35.99 41.86 35.59 41.58 35.26 41.23C33.83 39.78 33.83 37.85 35.25 36.4C36.02 35.61 36.8 34.84 37.6 34.08C39.22 32.53 41 32.55 42.59 34.13C42.7 34.24 42.83 34.33 42.91 34.46C43.29 35.02 43.71 34.96 44.27 34.68C45.01 34.31 45.8 34 46.59 33.73C47.14 33.55 47.41 33.3 47.36 32.65C47.31 32.08 47.35 31.47 47.5 30.92C47.83 29.67 48.69 28.83 49.95 28.71C51.52 28.57 53.12 28.55 54.7 28.68C56.38 28.81 57.37 29.98 57.51 31.67C57.51 31.75 57.53 31.83 57.53 31.9C57.62 33.47 57.62 33.46 59.07 33.99C59.55 34.17 60.03 34.35 60.46 34.62C61.07 35 61.55 35.03 62 34.4C62.17 34.15 62.42 33.95 62.65 33.75C63.91 32.65 65.82 32.69 67.02 33.85C67.91 34.7 68.77 35.57 69.63 36.45C71.01 37.86 71.01 39.71 69.66 41.17C68.62 42.28 68.64 42.28 69.26 43.67C69.52 44.24 69.75 44.84 69.92 45.45C70.06 45.91 70.29 46.09 70.79 46.05C71.96 45.98 73.09 46.05 74 46.95C74.65 47.59 75 48.35 75 49.26C75 50.52 75 51.77 75 53.02C74.99 54.73 73.73 56.21 72.01 56.14C70.46 56.08 69.72 56.62 69.42 58.1C69.28 58.77 68.84 59.38 68.48 60.14L68.47 60.14ZM66.73 63.46C66.21 62.99 65.69 62.55 65.2 62.06C64.16 61.04 64.07 60.29 64.81 59.07C65.7 57.63 66.36 56.11 66.73 54.44C67.05 53 67.72 52.52 69.22 52.51C69.9 52.51 70.57 52.51 71.24 52.51L71.24 49.88C70.54 49.88 69.88 49.89 69.22 49.88C67.72 49.87 67.07 49.39 66.73 47.94C66.34 46.29 65.71 44.75 64.8 43.32C64.1 42.21 64.19 41.36 65.09 40.42C65.6 39.9 66.14 39.39 66.66 38.89C66 38.22 65.4 37.6 64.77 36.96C64.28 37.45 63.82 37.93 63.35 38.4C62.31 39.44 61.61 39.58 60.36 38.83C58.82 37.9 57.2 37.23 55.44 36.82C54.26 36.55 53.79 35.88 53.79 34.67C53.78 33.92 53.79 33.16 53.79 32.42L51.13 32.42C51.13 32.86 51.13 33.27 51.12 33.68C51.12 34.08 51.11 34.49 51.07 34.9C50.96 36.01 50.51 36.57 49.43 36.82C47.65 37.23 46 37.92 44.44 38.87C43.36 39.54 42.6 39.44 41.71 38.55C41.17 38.01 40.69 37.41 40.34 37.01C39.53 37.72 38.89 38.29 38.15 38.95C38.48 39.22 38.78 39.46 39.06 39.72C39.34 39.99 39.61 40.26 39.86 40.55C40.62 41.43 40.71 42.21 40.09 43.2C39.15 44.7 38.46 46.29 38.08 48.03C37.78 49.38 37.07 49.87 35.66 49.88C34.98 49.89 34.3 49.88 33.62 49.88L33.62 52.51C34.31 52.51 34.95 52.51 35.59 52.51C37.08 52.52 37.65 53.05 38.12 54.42C38.66 56 39.3 57.55 40.04 59.04C40.63 60.26 40.65 61.04 39.7 62C39.18 62.52 38.61 62.98 38.03 63.48C38.49 63.93 38.79 64.2 39.08 64.5C39.37 64.81 39.65 65.15 40.06 65.62C40.67 64.95 41.15 64.36 41.7 63.83C42.63 62.93 43.31 62.83 44.37 63.49C45.95 64.46 47.62 65.17 49.43 65.57C50.56 65.82 51.02 66.49 51.04 67.66C51.06 68.42 51.04 69.17 51.04 69.95L53.78 69.95C53.78 69.15 53.77 68.39 53.78 67.63C53.79 66.54 54.29 65.81 55.35 65.58C57.16 65.18 58.82 64.46 60.42 63.52C61.62 62.81 62.26 62.93 63.27 63.94C63.77 64.44 64.24 64.97 64.69 65.45C65.41 64.75 66.01 64.17 66.73 63.46L66.73 63.46Z" fill="#FFFFFF" fill-opacity="1.000000" fill-rule="nonzero"/>
		<path id="Vector" d="M3.75 29.02C3.75 32.7 3.75 36.39 3.74 40.07C3.73 43.35 3.96 46.59 4.92 49.75C6.09 53.6 7.97 57.06 10.62 60.11C13.31 63.2 16.5 65.6 20.24 67.28C23.45 68.73 26.82 69.58 30.35 69.69C30.86 69.71 31.37 69.76 31.88 69.82C32.9 69.94 33.65 70.77 33.62 71.71C33.58 72.74 32.73 73.53 31.63 73.53C26.94 73.54 22.48 72.54 18.24 70.53C12.03 67.57 7.26 63.06 3.91 57.08C2 53.66 0.72 49.99 0.3 46.06C0.14 44.52 0.02 42.96 0.01 41.4C-0.01 32.48 0.01 23.55 0 14.62C-0.01 13.51 0.42 12.8 1.45 12.38C11.18 8.34 20.91 4.29 30.63 0.23C31.39 -0.09 32.08 -0.08 32.84 0.23C42.37 4.21 51.91 8.17 61.44 12.14C63.26 12.9 63.47 13.21 63.47 15.18C63.47 18.83 63.47 22.49 63.47 26.15C63.47 27.47 62.69 28.38 61.57 28.38C60.51 28.39 59.69 27.5 59.68 26.22C59.66 22.92 59.66 19.62 59.69 16.32C59.7 15.67 59.47 15.39 58.89 15.15C50.01 11.48 41.14 7.77 32.26 4.09C31.99 3.98 31.6 3.92 31.35 4.02C22.42 7.72 13.51 11.46 4.58 15.15C3.94 15.42 3.72 15.73 3.73 16.43C3.77 20.63 3.75 24.82 3.75 29.02L3.75 29.02Z" fill="#FFFFFF" fill-opacity="1.000000" fill-rule="nonzero"/>
		<path id="Vector" d="M52.34 60.96C46.97 60.94 42.53 56.47 42.57 51.15C42.62 45.77 47.08 41.33 52.38 41.38C58 41.44 62.27 45.78 62.24 51.38C62.21 56.64 57.73 60.98 52.34 60.96L52.34 60.96ZM58.44 51.21C58.46 47.84 55.78 45.15 52.39 45.12C49.15 45.1 46.44 47.82 46.4 51.1C46.36 54.13 48.64 57.12 52.37 57.19C55.81 57.24 58.42 54.47 58.44 51.21Z" fill="#FFFFFF" fill-opacity="1.000000" fill-rule="nonzero"/>
	</g>
</svg>
