<svg width="74" height="75" viewBox="0 0 74 75" fill="none" xmlns="http://www.w3.org/2000/svg">
<g clip-path="url(#clip0_2_24847)">
<path d="M37.2382 0C38.0884 0.0947823 38.9424 0.160473 39.7879 0.289039C42.683 0.730105 45.5068 1.40109 48.0359 2.97297C49.1798 3.68431 50.0816 4.60867 50.5546 5.89339C50.6438 6.13551 50.6822 6.40953 50.6832 6.66948C50.6907 12.2776 50.6747 17.8857 50.6991 23.4947C50.7057 24.8714 49.4735 25.3707 48.7162 24.9212C48.2958 24.6715 48.0415 24.3281 48.018 23.8326C48.0096 23.6458 48.0096 23.4581 48.0096 23.2705C48.0096 17.9748 48.0011 12.6783 48.018 7.3827C48.0208 6.60848 47.7496 6.03791 47.1274 5.59028C45.7386 4.58896 44.1648 4.01276 42.5357 3.56513C39.6941 2.78435 36.7887 2.58352 33.8607 2.72523C30.914 2.86693 28.0424 3.41029 25.3303 4.61336C24.6387 4.92023 23.9987 5.35473 23.3587 5.7667C22.8463 6.09703 22.683 6.59347 22.6849 7.21378C22.7027 12.6032 22.6961 17.9927 22.6933 23.3821C22.6933 23.5989 22.6858 23.8223 22.6351 24.0306C22.4803 24.6744 21.8769 25.1314 21.2706 25.0892C20.6044 25.0422 20.0535 24.4904 19.9981 23.8063C19.9859 23.6515 19.9925 23.4938 19.9925 23.338C19.9925 17.9636 20.0178 12.5901 19.9756 7.21659C19.9643 5.73104 20.5912 4.63964 21.6704 3.74812C23.4553 2.27384 25.5762 1.47241 27.789 0.975038C29.6059 0.566817 31.4724 0.377252 33.3164 0.0882132C33.4366 0.0694444 33.5539 0.03003 33.673 0.000938438C34.8602 0.000938438 36.0482 0.000938438 37.2354 0.000938438L37.2382 0Z" fill="white"/>
<path d="M42.6755 49.2821C40.6213 49.4153 38.6327 49.6021 36.6404 49.6575C34.6453 49.7138 32.6614 49.481 30.6747 49.116C30.6747 49.2849 30.6747 49.4716 30.6747 49.6584C30.6747 55.8765 30.6485 62.0936 30.6991 68.3117C30.7076 69.4191 30.2844 70.2299 29.5974 70.9816C28.8589 71.7896 27.9354 72.347 26.9538 72.8031C24.6997 73.8495 22.3179 74.4632 19.8555 74.6931C17.9476 74.8714 16.022 75.0047 14.1094 74.9577C10.6466 74.8733 7.25413 74.3055 4.04467 72.9157C2.51596 72.2541 1.13833 71.3879 0.297487 69.8789C0.152029 69.618 0.0450474 69.3065 0.0234633 69.0109C-0.0187664 68.4206 0.00938676 67.8247 0.00938676 67.2306C0.00938676 55.5762 0.014079 43.9217 -0.000936061 32.2682C-0.0018745 31.3898 0.27778 30.6494 0.796737 29.984C1.87313 28.6045 3.37932 27.8416 4.9512 27.2128C7.75526 26.0914 10.6888 25.5724 13.6956 25.3876C17.7177 25.1398 21.6329 25.6409 25.4195 27.0195C26.845 27.5385 28.2048 28.2113 29.2999 29.3074C30.1914 30.1999 30.7057 31.2134 30.6916 32.5431C30.6447 37.0889 30.6738 41.6347 30.6738 46.1815C30.6738 46.3513 30.6738 46.5212 30.6738 46.5531C31.6554 46.6432 32.5892 46.7305 33.5238 46.8159C35.9563 47.0373 38.3868 47.0608 40.8118 46.7192C41.2744 46.6544 41.7342 46.5362 42.1978 46.5193C42.6389 46.5034 42.6821 46.296 42.6811 45.9272C42.6699 41.8337 42.6746 37.7412 42.6746 33.6477C42.6746 33.2723 42.6999 32.896 42.6699 32.5234C42.5516 31.0332 43.2827 29.9596 44.3572 29.0606C45.6213 28.0039 47.103 27.3451 48.6449 26.8262C51.8985 25.7301 55.2571 25.2618 58.6796 25.3266C62.211 25.3932 65.6719 25.9281 68.9208 27.3855C69.9184 27.8331 70.8362 28.4797 71.7371 29.1113C72.4831 29.633 72.9214 30.427 73.2386 31.2725C73.3127 31.4705 73.3352 31.6976 73.3352 31.9116C73.3399 44.238 73.3362 56.5634 73.3446 68.8898C73.3446 69.7053 72.8613 70.2627 72.3987 70.8136C71.418 71.9791 70.0985 72.6539 68.7078 73.2066C66.4743 74.0934 64.1432 74.5617 61.7643 74.8048C57.3724 75.2534 53.0405 74.9577 48.7997 73.6777C47.2269 73.2029 45.6832 72.6192 44.4238 71.5324C43.8091 71.0022 43.3211 70.3144 42.8313 69.6575C42.6839 69.4594 42.6811 69.1235 42.6811 68.8513C42.6736 62.4934 42.6755 56.1346 42.6755 49.7766C42.6755 49.5918 42.6755 49.4069 42.6755 49.283V49.2821ZM27.9852 50.3378C27.9852 44.4172 27.9795 38.4957 27.9936 32.5751C27.9955 31.9219 27.789 31.4086 27.2654 31.0454C26.7671 30.7001 26.2622 30.3519 25.7207 30.0854C22.8547 28.6758 19.7738 28.17 16.6216 28.0349C14.4332 27.941 12.2513 28.0743 10.0985 28.5032C7.87538 28.9461 5.7104 29.5505 3.76689 30.7901C2.99456 31.2828 2.66986 31.8947 2.67174 32.8322C2.69707 44.4867 2.68769 56.1411 2.68863 67.7956C2.68863 67.9673 2.68863 68.1391 2.69238 68.3108C2.70083 68.7265 2.85004 69.0831 3.20289 69.3102C3.75188 69.6621 4.29054 70.0469 4.88082 70.3144C7.4512 71.4808 10.1764 72.0035 12.9795 72.2025C16.0182 72.4183 19.0315 72.2879 22.0064 71.6113C23.8035 71.2021 25.5574 70.6663 27.119 69.634C27.7299 69.2305 28.003 68.7218 27.9993 67.9598C27.9739 62.0861 27.9852 56.2115 27.9852 50.3378ZM45.3632 50.2693C45.3632 56.1899 45.3698 62.1115 45.3529 68.0321C45.351 68.6608 45.5537 69.1282 46.0679 69.4547C46.5409 69.755 47.012 70.0685 47.5178 70.304C49.8048 71.3673 52.2372 71.8609 54.7325 72.1105C58.1916 72.4559 61.6197 72.3198 65.0113 71.5259C66.5653 71.1627 68.0631 70.6559 69.4435 69.8329C70.2675 69.3412 70.6832 68.7246 70.6794 67.6792C70.6428 56.1965 70.6334 44.7138 70.686 33.231C70.6926 31.8571 70.1952 31.0116 69.0466 30.4279C68.8241 30.3153 68.6092 30.1877 68.385 30.0788C65.5115 28.6833 62.4343 28.17 59.2821 28.0349C57.0937 27.941 54.9118 28.0734 52.759 28.5041C50.4889 28.9583 48.2742 29.5664 46.3119 30.8737C45.6457 31.3175 45.3397 31.8581 45.3444 32.6952C45.3744 38.5538 45.3604 44.4125 45.3604 50.2712L45.3632 50.2693Z" fill="white"/>
<path d="M36.2922 13.231C32.8341 13.1194 30.1896 12.973 27.6333 12.1762C26.6329 11.8647 25.6607 11.4855 24.908 10.7057C24.4679 10.2496 24.2014 9.72409 24.208 9.0775C24.2145 8.42623 24.6293 7.89976 25.2515 7.76275C25.8774 7.6248 26.5165 7.90633 26.7399 8.51913C26.9003 8.95832 27.21 9.14601 27.5882 9.30366C29.0109 9.89957 30.5114 10.2121 32.0345 10.2965C34.0099 10.4054 35.9957 10.4551 37.9711 10.3819C39.8067 10.3144 41.6263 10.0094 43.3484 9.30085C43.7303 9.14413 44.0259 8.94987 44.1864 8.5135C44.4276 7.85472 45.214 7.55817 45.8605 7.79841C46.5231 8.04522 46.8703 8.79879 46.6695 9.58989C46.4724 10.365 45.9403 10.8868 45.2919 11.2922C44.1244 12.0223 42.8219 12.423 41.4799 12.6182C39.4942 12.9073 37.4934 13.0921 36.2913 13.2301L36.2922 13.231Z" fill="white"/>
<path d="M35.3669 4.68188C36.6798 4.70628 37.7787 4.81608 38.8082 5.26841C39.2436 5.45985 39.7701 5.65317 39.7513 6.24063C39.7335 6.78586 39.237 6.982 38.8147 7.17532C37.7252 7.67456 36.5512 7.77122 35.3866 7.7243C34.4792 7.6877 33.5726 7.49157 32.6783 7.3067C32.3423 7.23725 32.0101 7.04018 31.7305 6.82997C31.189 6.42456 31.1721 5.8981 31.7671 5.59968C32.4775 5.24401 33.2611 5.01128 34.0343 4.81045C34.5242 4.68282 35.0535 4.7091 35.3669 4.68282V4.68188Z" fill="white"/>
<path d="M15.519 38.5305C12.8885 38.4742 10.1839 38.3062 7.56569 37.4879C6.62444 37.1932 5.71603 36.8234 4.98593 36.1224C4.49043 35.6466 4.20045 35.0798 4.20984 34.3807C4.21828 33.7801 4.64903 33.2208 5.19145 33.1007C5.85867 32.9524 6.52309 33.2264 6.73987 33.8411C6.90316 34.3028 7.23067 34.4989 7.62388 34.6585C8.96397 35.2018 10.3716 35.4627 11.7981 35.6213C14.2277 35.8916 16.6601 35.8934 19.0897 35.6241C20.5321 35.4636 21.9557 35.2046 23.3108 34.6566C23.704 34.4971 24.0325 34.3056 24.1929 33.8411C24.4041 33.2311 25.0788 32.9524 25.7423 33.1016C26.2641 33.2189 26.7277 33.8007 26.7314 34.3816C26.7399 35.4205 26.1243 36.0915 25.3228 36.6095C24.2061 37.3302 22.9392 37.6718 21.6535 37.9327C19.6603 38.3381 17.6408 38.4976 15.5199 38.5314L15.519 38.5305Z" fill="white"/>
<path d="M15.5452 33.2029C14.5571 33.0095 13.5642 32.8359 12.5826 32.6126C12.2898 32.546 12.0073 32.3705 11.7586 32.1912C11.204 31.7914 11.1984 31.1721 11.8084 30.8812C12.5009 30.5499 13.2432 30.2684 13.9949 30.1314C15.4364 29.8686 16.8872 29.9587 18.2958 30.3904C18.6627 30.503 19.0175 30.685 19.3431 30.8906C19.8893 31.2359 19.893 31.7914 19.3769 32.1847C18.6796 32.7149 17.8416 32.8491 17.012 32.9805C16.5362 33.0555 16.0511 33.0668 15.5696 33.1071C15.5612 33.139 15.5527 33.171 15.5443 33.2029H15.5452Z" fill="white"/>
<path d="M59.0907 38.5502C55.5781 38.4741 52.8735 38.3109 50.2534 37.4944C49.3562 37.2148 48.4891 36.8685 47.7712 36.2341C47.2091 35.7367 46.8525 35.1399 46.8788 34.3582C46.8994 33.7585 47.3301 33.2086 47.8791 33.0978C48.5379 32.9655 49.1883 33.2255 49.3938 33.8186C49.5599 34.3 49.8977 34.5008 50.3059 34.665C51.647 35.2037 53.0546 35.4636 54.482 35.6213C56.8966 35.8887 59.3131 35.8897 61.7277 35.6241C63.171 35.4655 64.5937 35.2037 65.9516 34.665C66.3607 34.5027 66.6967 34.3 66.8666 33.8232C67.0927 33.1898 67.8801 32.8998 68.5126 33.1269C69.1488 33.355 69.5186 34.0851 69.3619 34.818C69.1817 35.657 68.6243 36.2153 67.9298 36.6423C66.647 37.4315 65.2121 37.8182 63.7444 38.0265C61.9407 38.2827 60.122 38.4366 59.0907 38.5483V38.5502Z" fill="white"/>
<path d="M58.034 29.9906C59.3609 30.0159 60.4589 30.1314 61.4893 30.5809C61.9276 30.7723 62.4474 30.9835 62.4287 31.5615C62.4108 32.0983 61.9238 32.317 61.4931 32.5028C60.2618 33.0321 58.9593 33.1156 57.6436 33.0508C56.677 33.0039 55.717 32.8932 54.8376 32.4399C54.6593 32.348 54.4782 32.2475 54.329 32.1152C53.8936 31.7305 53.9048 31.295 54.3628 30.9347C55.0366 30.4054 55.853 30.2459 56.6676 30.1135C57.1884 30.0291 57.7205 30.0169 58.0349 29.9906H58.034Z" fill="white"/>
</g>
<defs>
<clipPath id="clip0_2_24847">
<rect width="73.3455" height="75" fill="white"/>
</clipPath>
</defs>
</svg>
