<svg width="75" height="75" viewBox="0 0 75 75" fill="none" xmlns="http://www.w3.org/2000/svg">
<g clip-path="url(#clip0_2_24863)">
<path d="M39.2876 0C39.238 0.00387009 39.1885 0.0085142 39.139 0.0131583C39.0105 0.0255426 38.8774 0.0387009 38.7373 0.0387009C36.2736 0.044893 33.8099 0.0479891 31.3462 0.0510852C25.774 0.0580513 20.0122 0.0657915 14.3464 0.113781C10.4229 0.147063 6.94603 1.28332 4.01173 3.49237C1.99696 5.00867 0.776335 6.73937 0.280963 8.78433C0.15712 9.29595 0.154024 9.87105 0.151702 10.4268V10.5762C0.136222 12.9973 0.119967 15.4192 0.103713 17.8403C0.054176 25.1385 0.0038648 32.6852 -5.29052e-06 40.1065C-0.00155333 43.8535 0.0294074 47.6648 0.0595941 51.3499C0.0944249 55.5706 0.13003 59.9345 0.116097 64.228C0.108357 66.6971 1.03099 68.7846 2.93817 70.6098C4.84999 72.4403 7.21694 73.6687 10.1721 74.3645C15.2814 75.5674 20.167 75.0604 24.6943 72.8575C27.1487 71.6632 28.9831 69.8327 30.1457 67.4162C30.3012 67.0926 30.4096 66.7358 30.5249 66.3573C30.5807 66.1739 30.6379 65.9842 30.703 65.7931L30.792 65.5299H35.5762C44.0385 65.5299 52.788 65.5299 61.3943 65.5361H61.3959C61.6211 65.5361 61.7473 65.485 61.8974 65.3348C65.872 61.3479 69.9209 57.3013 73.8359 53.3887L74.7964 52.4281C74.8638 52.3608 74.9327 52.3019 74.9992 52.2454V0.778662L74.2206 0H39.2876ZM4.27102 6.51104C5.62323 5.13406 7.33226 4.10152 9.49642 3.35537C11.7163 2.58986 14.1134 2.32592 17.0408 2.52407C19.7506 2.70829 22.3412 3.53958 24.7391 4.99474C25.7369 5.60079 26.5743 6.37017 27.2276 7.28273C28.0875 8.48323 28.4761 9.81996 28.3515 11.1482C28.2276 12.4725 27.5945 13.7574 26.5217 14.8635C24.9659 16.4672 22.9326 17.5927 20.3048 18.3047C18.8133 18.7088 17.2389 18.9108 15.3511 18.9402H15.3449H15.3387C11.6869 18.8744 8.68215 18.0393 6.15266 16.3883C5.37245 15.879 4.68899 15.3155 4.12241 14.7149C3.09065 13.6212 2.50472 12.2303 2.47298 10.7983C2.43738 9.22861 3.05969 7.7456 4.27257 6.51104H4.27102ZM28.3499 65.2218C28.3499 65.444 28.295 65.6839 28.1835 65.9556C27.1943 68.3682 25.322 70.0912 22.4597 71.2213C20.085 72.1594 17.7219 72.6276 15.3844 72.6276C12.5275 72.6276 9.7085 71.9279 6.9499 70.53C4.84535 69.4634 3.36465 67.8504 2.54806 65.7342C2.46137 65.5105 2.41957 65.2443 2.4188 64.9207C2.39713 51.9134 2.37933 38.6877 2.3623 25.8979L2.35533 20.7328C2.35456 20.1198 2.35301 19.506 2.35146 18.893L2.34914 17.9115C2.34914 17.8233 2.34914 17.7351 2.34914 17.6244V16.6584L2.96526 17.1097C3.04808 17.17 3.12238 17.2242 3.19204 17.2745C3.32905 17.3736 3.4467 17.4587 3.56357 17.5493C5.94987 19.41 8.75181 20.585 11.892 21.0409C14.7768 21.4596 17.5354 21.3908 20.0927 20.835C23.1485 20.1717 25.5921 19.0037 27.562 17.2645C27.6177 17.2149 27.6742 17.1816 27.7284 17.1484C27.7509 17.1352 27.7764 17.1197 27.8058 17.1004L28.3538 16.7474L28.401 17.3976C28.4041 17.4448 28.408 17.4874 28.4119 17.5276C28.4196 17.6159 28.4273 17.6987 28.4273 17.7877C28.4041 33.7619 28.3809 49.4102 28.3507 65.2234L28.3499 65.2218ZM62.4408 61.159V52.9831H70.7352L62.4408 61.159ZM72.6121 50.4799L69.5199 50.483C67.2536 50.4861 64.9107 50.4884 62.6064 50.4969C62.0669 50.4992 61.5383 50.5364 61.0932 50.5728C60.4245 50.6277 60.1218 50.9203 60.0808 51.5527C59.9972 52.8461 59.9484 54.0984 59.9368 55.2749C59.9213 56.9197 59.9237 58.5939 59.9268 60.2124C59.9283 60.8982 59.9291 61.5832 59.9291 62.269V63.1397H30.8369V62.5561C30.8369 62.4238 30.8369 62.3061 30.8369 62.1877C30.8299 58.5777 30.8229 54.9676 30.8167 51.3576C30.7943 39.372 30.7711 26.9776 30.737 14.7884C30.7339 13.632 30.6828 12.4516 30.6333 11.3107C30.6054 10.6567 30.576 9.98096 30.5559 9.31453C30.5156 7.97858 29.9707 6.7773 28.7896 5.42122C28.3391 4.90418 27.8368 4.40648 27.3515 3.92504C27.1711 3.74625 26.9915 3.56822 26.8135 3.38788C26.7779 3.3515 26.7152 3.31202 26.6502 3.271C26.6069 3.24391 26.5635 3.21604 26.5217 3.18663L26.1618 2.9343L26.6456 2.40178H72.6121V50.4799Z" fill="white"/>
<path d="M11.0955 13.6568C12.1064 14.4478 13.3247 14.8758 14.8201 14.9641C16.7149 15.0763 18.2645 14.6839 19.5587 13.7651C20.6554 12.9865 21.2863 11.861 21.2878 10.6791C21.2894 9.49331 20.6601 8.3617 19.561 7.57607C18.3612 6.71846 16.9781 6.32681 15.4509 6.41272H15.4308H15.4107C15.2799 6.40653 15.1506 6.40344 15.0221 6.40344C13.6413 6.40344 12.4392 6.76335 11.3564 7.49867C10.2286 8.26495 9.62646 9.21467 9.51732 10.4028C9.40045 11.6706 9.91594 12.7349 11.094 13.6575L11.0955 13.6568ZM12.5159 9.6992C13.6924 8.65738 15.132 8.66976 16.1127 8.76961C16.992 8.85939 17.749 9.1721 18.362 9.69998C18.6082 9.91206 18.9348 10.2449 18.9317 10.6876C18.9294 11.1311 18.5966 11.4632 18.3465 11.6737C17.5694 12.3293 16.8573 12.5298 15.2985 12.5337H15.2923C14.4525 12.5213 13.4795 12.4237 12.6289 11.7914C12.1745 11.4539 11.868 11.1474 11.851 10.7519C11.8332 10.3393 12.142 10.0313 12.5159 9.69998V9.6992Z" fill="white"/>
</g>
<defs>
<clipPath id="clip0_2_24863">
<rect width="74.9992" height="75" fill="white"/>
</clipPath>
</defs>
</svg>
