<svg width="75" height="60" viewBox="0 0 75 60" fill="none" xmlns="http://www.w3.org/2000/svg">
<g clip-path="url(#clip0_2_24871)">
<path d="M46.5732 0C55.6993 4.7775 64.8231 9.5561 73.9525 14.327C74.6141 14.6732 75.0452 15.144 74.9702 15.9224C74.8953 16.7075 74.3539 17.0669 73.6515 17.2819C69.475 18.5609 65.3028 19.8509 61.1284 21.1388C60.9751 21.1862 60.8252 21.2435 60.5639 21.3328C60.8186 21.4783 60.995 21.5864 61.178 21.6823C65.4384 23.9228 69.6999 26.1621 73.9603 28.4026C74.8048 28.8469 75.1621 29.5415 74.9195 30.2659C74.7431 30.7941 74.3726 31.0962 73.839 31.2616C69.4562 32.6133 65.0767 33.9783 60.6962 35.3389C60.6785 35.3445 60.6631 35.3555 60.5738 35.4007C60.7701 35.512 60.9277 35.6091 61.0909 35.694C65.2906 37.8925 69.4904 40.0889 73.6879 42.2918C73.9933 42.4528 74.3252 42.6083 74.5623 42.8486C75.3947 43.6932 74.989 44.9601 73.7772 45.3394C71.9282 45.9171 70.0737 46.4783 68.2224 47.0484C64.5541 48.1774 60.8847 49.3032 57.2197 50.4399C56.5582 50.645 55.9804 50.5612 55.5262 50.0232C54.8139 49.1797 55.181 48.0142 56.2825 47.6669C59.3323 46.7055 62.3886 45.7628 65.4417 44.8123C66.7968 44.3912 68.1519 43.9722 69.615 43.519C69.379 43.3801 69.2335 43.2864 69.0813 43.2059C65.0613 41.0977 61.038 38.9962 57.0257 36.8737C56.6497 36.6753 56.3299 36.6576 55.9385 36.78C47.1234 39.5144 38.3049 42.2356 29.4919 44.9744C28.8535 45.1729 28.3078 45.1321 27.7113 44.8134C24.6935 43.1971 21.6614 41.6104 18.626 40.0282C18.4032 39.9125 18.0835 39.822 17.8608 39.8904C13.7184 41.154 9.58366 42.4429 5.35195 43.7561C5.56915 43.8774 5.718 43.9645 5.87126 44.0449C13.3898 47.9933 20.9094 51.9394 28.4224 55.8977C28.7587 56.0752 29.0399 56.083 29.3971 55.9716C34.4723 54.3828 39.5508 52.8061 44.6337 51.2415C44.9899 51.1324 45.3967 51.0739 45.7617 51.1246C46.399 51.2128 46.862 51.8005 46.9017 52.4301C46.9458 53.1258 46.571 53.7168 45.8719 53.9406C43.9226 54.5647 41.9666 55.1689 40.0117 55.7742C36.4856 56.8669 32.9552 57.9474 29.4335 59.0544C28.8458 59.2397 28.3441 59.1768 27.8061 58.8946C18.9578 54.2505 10.1052 49.6141 1.24702 44.9866C0.710064 44.7065 0.265723 44.3636 0 43.8123V42.9313C0.336288 42.3492 0.854503 42.046 1.4918 41.8519C5.34864 40.6754 9.19886 39.4769 13.0513 38.2828C13.4901 38.1472 13.9234 37.9973 14.4317 37.8297C14.1881 37.6985 14.0293 37.6103 13.8694 37.5254C9.65974 35.3213 5.45338 33.1117 1.2382 30.9198C0.725501 30.653 0.272338 30.3542 0 29.8315V28.8403C0.357237 28.2769 0.87435 27.9737 1.51164 27.7785C4.48311 26.8678 7.44355 25.924 10.4084 24.9912C11.7999 24.5535 13.1913 24.1124 14.6754 23.6438C14.1473 23.4156 13.7062 23.2524 13.2895 23.0396C9.24627 20.9778 5.20971 18.9016 1.16323 16.8442C0.653833 16.5851 0.248082 16.2565 0 15.7405V14.8595C0.306518 14.3093 0.760783 13.9808 1.37272 13.7922C14.1164 9.86482 26.8556 5.92639 39.5949 1.98575C41.7042 1.33413 43.8068 0.662653 45.9127 0C46.1332 0 46.3527 0 46.5732 0ZM5.2913 15.6732C8.03564 17.089 10.6444 18.4143 13.2321 19.7804C14.1175 20.2479 15.0161 20.4651 16.0183 20.4022C16.9324 20.3449 17.8519 20.3868 18.7693 20.3901C20.8686 20.3978 22.8819 19.9832 24.7894 19.11C26.7884 18.1949 28.4742 16.8662 29.8635 15.1594C30.4633 14.4229 31.159 14.1759 31.8272 14.5684C32.169 14.7691 32.4568 15.1286 32.6652 15.477C33.6332 17.1022 34.8417 18.5058 36.3246 19.6855C38.1527 21.1399 40.2818 21.9117 42.4782 22.6096C43.7958 23.0286 44.9888 23.0429 46.2997 22.6316C53.4136 20.4 60.544 18.2213 67.6689 16.0239C68.2897 15.832 68.9082 15.6324 69.6172 15.4086C69.4099 15.2917 69.3029 15.2267 69.1916 15.1694C61.6047 11.1934 54.0189 7.21531 46.4232 3.25593C46.2027 3.14126 45.8576 3.14678 45.6095 3.22285C34.1173 6.76215 22.6294 10.3147 11.1405 13.8661C9.23856 14.4538 7.3377 15.0415 5.2913 15.6732ZM34.0842 40.423C34.2959 40.37 34.3995 40.3491 34.4999 40.3182C38.9852 38.9356 43.4727 37.5584 47.9525 36.1571C48.3175 36.0435 48.6879 35.8241 48.9592 35.555C52.5359 32.0014 56.0951 28.4312 59.6586 24.8644C59.7832 24.7398 59.899 24.6053 60.0633 24.4289C58.9662 23.8588 57.9232 23.2976 56.8603 22.7783C56.6442 22.6724 56.3288 22.6471 56.0995 22.7154C54.1578 23.2976 52.2228 23.9029 50.2933 24.5237C50.0121 24.6141 49.7255 24.7839 49.5171 24.9923C44.5157 29.9727 39.5232 34.963 34.5307 39.9522C34.4039 40.0789 34.2849 40.2124 34.0864 40.423H34.0842ZM43.8685 26.2834C43.6127 26.3055 43.4837 26.3033 43.3602 26.3286C40.0293 27.0078 36.6642 27.332 33.2661 27.2912C32.8857 27.2868 32.6244 27.4014 32.3587 27.6683C28.9561 31.0841 25.5425 34.4888 22.1322 37.8969C22.0098 38.0193 21.8995 38.1549 21.7507 38.3225C24.0176 39.5111 26.2316 40.6721 28.4544 41.8376C33.5759 36.6709 38.6798 31.5207 43.8696 26.2845L43.8685 26.2834ZM18.9248 36.8351C22.1851 33.5605 25.4013 30.3299 28.622 27.0949C28.5889 27.0894 28.5239 27.0762 28.4588 27.0651C26.0486 26.634 23.6405 26.193 21.2259 25.7872C21.0086 25.7509 20.6889 25.8799 20.5257 26.0408C18.0736 28.4643 15.6402 30.9065 13.2034 33.3455C13.1064 33.4425 13.0226 33.5516 12.8991 33.6939C14.94 34.7579 16.9313 35.7954 18.9248 36.8351ZM62.9587 25.9515C60.2254 28.6749 57.5439 31.3476 54.8392 34.0423C59.7468 32.5273 64.6478 31.0146 69.6547 29.4688C67.3117 28.2372 65.0789 27.0651 62.9587 25.9504V25.9515ZM30.9948 18.3503C28.6088 20.6801 25.8115 22.216 22.592 23.0154C27.601 24.3109 32.6641 24.592 37.79 24.1245C35.0512 22.7529 32.7854 20.8587 30.9948 18.3503ZM15.8441 26.5105C15.8309 26.4775 15.8177 26.4444 15.8044 26.4113C12.3534 27.4907 8.90227 28.5713 5.34864 29.6827C5.57577 29.8183 5.70698 29.9043 5.8437 29.9771C6.79633 30.4821 7.74676 30.9881 8.7038 31.4854C9.1702 31.728 9.684 32.1844 10.1096 32.1172C10.5396 32.0499 10.8957 31.4645 11.2695 31.0918C12.7977 29.568 14.3193 28.0376 15.843 26.5105H15.8441Z" fill="white"/>
<path d="M52.5117 50.806C52.5095 51.6032 51.8413 52.279 51.0497 52.2868C50.2305 52.2945 49.5424 51.6043 49.5535 50.7861C49.5634 50.0055 50.2624 49.3208 51.0431 49.3263C51.8248 49.3318 52.5139 50.0265 52.5117 50.806Z" fill="white"/>
</g>
<defs>
<clipPath id="clip0_2_24871">
<rect width="75" height="59.1581" fill="white"/>
</clipPath>
</defs>
</svg>
