<svg width="75" height="72" viewBox="0 0 75 72" fill="none" xmlns="http://www.w3.org/2000/svg">
<path d="M67.092 12.9769C67.092 14.3006 67.092 15.5483 67.092 16.7949C67.092 17.7354 66.6379 18.1905 65.6891 18.1957C64.7362 18.2009 63.7832 18.1968 62.7532 18.1968C62.7532 18.4186 62.7532 18.6029 62.7532 18.7873C62.7532 31.3173 62.7542 43.8484 62.7407 56.3784C62.7407 56.8752 62.8625 57.0387 63.3739 57.02C64.5008 56.9804 65.6298 57.0023 66.7577 57.0033C67.8554 57.0043 68.2689 57.4147 68.271 58.503C68.273 59.5445 68.2699 60.586 68.272 61.6264C68.272 61.8139 68.2887 62.0014 68.2959 62.1638C72.24 62.6512 73.2471 65.2039 72.9201 68.7137C73.2627 68.7137 73.52 68.7001 73.7752 68.7158C74.5094 68.7616 75.0145 69.2969 75.001 69.9989C74.9874 70.6998 74.4636 71.1882 73.7106 71.1997C73.5023 71.2028 73.294 71.1997 73.0857 71.1997C49.2223 71.1997 25.3589 71.1997 1.49655 71.1987C0.693567 71.1987 0.20928 70.8945 0.0457675 70.2905C-0.160445 69.5281 0.379041 68.7897 1.20806 68.7189C1.4653 68.697 1.72567 68.7158 2.08186 68.7158C2.08186 68.0273 2.06415 67.3754 2.08498 66.7255C2.16726 64.2207 3.98881 62.3752 6.50085 62.2336C6.55188 62.2305 6.60292 62.218 6.74247 62.194C6.74247 61.9024 6.74247 61.5983 6.74247 61.2942C6.74247 60.3048 6.73623 59.3154 6.74768 58.327C6.75706 57.4615 7.1976 57.0189 8.06932 57.0095C9.26702 56.9971 10.4647 56.9866 11.6614 57.0168C12.1332 57.0283 12.2779 56.8939 12.2759 56.4107C12.2602 50.9096 12.2665 45.4075 12.2665 39.9064C12.2665 32.8774 12.2654 25.8485 12.2644 18.8196C12.2644 18.6321 12.2644 18.4457 12.2644 18.1957C11.2927 18.1957 10.3793 18.1968 9.4649 18.1957C8.3349 18.1936 7.92351 17.7864 7.92247 16.672C7.92247 15.4608 7.92247 14.2506 7.92247 12.9769C6.94348 12.9769 6.0124 12.9769 5.08132 12.9769C4.22418 12.9758 3.72739 12.6092 3.61179 11.8948C3.50452 11.2345 3.87528 10.7367 4.68868 10.4742C13.6089 7.59451 22.5302 4.71795 31.4526 1.84034C33.296 1.24566 35.1373 0.642642 36.9891 0.0760775C37.2974 -0.0186971 37.6869 -0.0291119 37.991 0.0677456C48.7797 3.5265 59.5631 7.00295 70.3456 10.4794C71.1777 10.7481 71.536 11.2688 71.3891 11.9635C71.2527 12.6082 70.7913 12.9706 70.0737 12.9748C69.1041 12.981 68.1345 12.9769 67.0941 12.9769H67.092ZM33.3075 39.5877V18.229H20.566V39.5887H33.3075V39.5877ZM41.6945 18.2113V39.571H54.437V18.2124H41.6945V18.2113ZM4.5085 68.6741H70.4362C70.4362 67.944 70.4789 67.2504 70.4258 66.5641C70.3612 65.7267 69.8623 65.1487 69.0895 64.8696C68.7282 64.7384 68.3095 64.7259 67.9168 64.7248C47.6465 64.7186 27.3773 64.7196 7.10699 64.7196C6.9164 64.7196 6.72477 64.7196 6.53418 64.7311C5.63538 64.78 4.772 65.4257 4.63244 66.3016C4.5085 67.0775 4.54496 67.8795 4.50954 68.6741H4.5085ZM9.23577 62.1951H65.762V59.533H9.23577V62.1951ZM64.5695 13.0206H10.4439V15.6597H64.5695V13.0206ZM17.9925 57.0043V18.2457H14.7275C14.7275 18.5009 14.7275 18.7071 14.7275 18.9143C14.7275 31.3569 14.7275 43.8005 14.7275 56.243C14.7275 56.3992 14.6942 56.5669 14.741 56.7075C14.7796 56.8231 14.9118 56.9887 15.0056 56.9908C15.9908 57.0116 16.9771 57.0033 17.9915 57.0033L17.9925 57.0043ZM57.0136 18.2259V57.0085C57.8968 57.0085 58.7435 57.0085 59.5902 57.0085C60.0526 57.0085 60.2842 56.771 60.2849 56.2961C60.2849 43.8359 60.2849 31.3756 60.2849 18.9143V18.2259H57.0136ZM20.5691 46.0719V48.9225C20.867 48.9225 21.1263 48.9131 21.3846 48.9235C23.7779 49.0266 25.5287 50.1295 26.5962 52.2864C27.1055 53.3165 27.1315 54.4225 27.1013 55.539C27.0888 56.0149 27.0992 56.4919 27.0992 56.9721H33.3075V46.0709H20.5681L20.5691 46.0719ZM54.4401 48.8412V46.0834H41.6945V56.9658H47.9152C47.9152 56.1451 47.9121 55.3661 47.9152 54.5871C47.9277 51.9865 49.716 49.7057 52.2478 49.1235C52.9498 48.962 53.6819 48.935 54.4401 48.8412ZM35.8695 18.2145V39.5742H39.1356V18.2145H35.8695ZM54.463 42.1279H20.5577V43.5359H54.463V42.1279ZM33.7053 3.82123L33.6345 3.75354C26.7732 5.96668 19.912 8.17878 12.9611 10.4211C13.0997 10.4617 13.1299 10.4784 13.1601 10.4784C18.0675 10.4804 22.975 10.4846 27.8824 10.4721C28.0543 10.4721 28.273 10.3471 28.3906 10.2128C29.028 9.48167 29.6425 8.72972 30.2622 7.98194C31.4109 6.59573 32.5576 5.20848 33.7053 3.82228V3.82123ZM61.9304 10.4825C61.9356 10.4502 61.9419 10.418 61.9471 10.3857C55.0837 8.17253 48.2204 5.96043 41.2415 3.71084C41.38 3.89935 41.4372 3.98475 41.5018 4.06286C43.2067 6.11978 44.9085 8.17982 46.6301 10.2222C46.7582 10.3742 47.0373 10.469 47.2477 10.4711C48.7401 10.4919 50.2325 10.4815 51.725 10.4815C55.1264 10.4815 58.5269 10.4815 61.9283 10.4815L61.9304 10.4825ZM43.5733 10.4607C41.5102 7.97673 39.5178 5.57717 37.5025 3.14948C35.4644 5.60633 33.4824 7.99756 31.4401 10.4607H43.5733ZM39.1408 56.9773V46.099H35.8695V56.9773H39.1408ZM24.6007 56.9773C24.6007 56.1128 24.6122 55.3182 24.5986 54.5225C24.5643 52.5031 22.5282 50.9836 20.5723 51.4907V56.9773H24.6007ZM54.462 51.4179C54.1652 51.4179 53.9246 51.4179 53.683 51.4179C52.1437 51.4241 50.7908 52.377 50.5221 53.8872C50.345 54.8818 50.4887 55.9337 50.4887 56.9648H54.462V51.4189V51.4179Z" fill="white"/>
</svg>
