<svg width="75" height="57" viewBox="0 0 75 57" fill="none" xmlns="http://www.w3.org/2000/svg">
<path d="M69.8338 20.6467V21.3538C69.8338 30.4368 69.8338 39.5188 69.8338 48.6017C69.8338 48.6765 69.8445 48.753 69.832 48.826C69.7439 49.3593 69.8859 49.7457 70.3514 50.1025C70.9238 50.5411 71.1224 51.2231 71.1224 51.9464C71.1224 52.7968 71.1224 53.6472 71.1224 54.5561C72.0318 54.5561 72.8954 54.5435 73.7581 54.5597C74.5094 54.5732 75.0135 55.0957 75 55.8073C74.9883 56.4208 74.5327 56.9252 73.9225 56.9892C73.7599 57.0063 73.5936 56.9973 73.4292 56.9973C49.4833 56.9973 25.5365 56.9973 1.59058 56.9973C1.48544 56.9973 1.3812 56.9991 1.27606 56.9973C0.528397 56.982 0 56.4757 0 55.7767C0 55.0786 0.521208 54.5714 1.27606 54.5579C1.97879 54.5453 2.68242 54.5543 3.38515 54.5543C3.53073 54.5543 3.67721 54.5543 3.88569 54.5543C3.88569 53.8255 3.91445 53.14 3.8794 52.4572C3.82099 51.3357 4.08429 50.3781 5.07728 49.7241C5.14827 49.6773 5.18242 49.5268 5.18242 49.4241C5.18422 40.0566 5.18242 30.6899 5.17883 21.3223C5.17883 21.116 5.17883 20.9106 5.17883 20.6458C4.31434 20.6458 3.49748 20.6431 2.67973 20.6467C2.25737 20.6485 1.87994 20.5458 1.59148 20.2152C1.20058 19.7684 1.19339 19.2072 1.58249 18.5991C2.84148 16.6318 4.10406 14.6662 5.36574 12.6997C7.8963 8.75593 10.4358 4.81666 12.9502 0.86118C13.3402 0.245923 13.8192 0 14.5381 0C29.8544 0.0117106 45.1698 0.0117106 60.4862 0C61.1871 0 61.6571 0.242319 62.039 0.841362C65.8097 6.74891 69.5974 12.6447 73.387 18.5406C73.6925 19.0162 73.8435 19.4873 73.5523 20.0116C73.271 20.5179 72.8019 20.6548 72.2583 20.6485C71.4693 20.6395 70.6803 20.6467 69.8338 20.6467ZM46.622 49.3323C46.6301 49.1737 46.6409 49.0692 46.6409 48.9647C46.6409 41.9942 46.6436 35.0246 46.6301 28.0541C46.6301 27.8469 46.5097 27.5902 46.3605 27.4406C44.2029 25.2571 42.0354 23.0834 39.8544 20.9232C39.6972 20.7674 39.4195 20.6638 39.1957 20.6584C38.0599 20.6323 36.9222 20.6314 35.7854 20.6584C35.5625 20.6638 35.2903 20.7782 35.1321 20.9349C32.9619 23.0852 30.8043 25.2472 28.6592 27.4226C28.4939 27.5911 28.3672 27.882 28.3672 28.1172C28.3519 35.0273 28.3546 41.9375 28.3555 48.8476C28.3555 49.0071 28.3699 49.1665 28.378 49.3314H46.622V49.3323ZM48.8668 18.1758C48.8417 18.0325 48.8282 17.9172 48.8012 17.8055C47.5728 12.8204 46.339 7.83619 45.1213 2.84748C45.0422 2.52408 44.9003 2.45923 44.601 2.45923C39.876 2.46733 35.151 2.46914 30.426 2.45562C30.0656 2.45472 29.9434 2.58174 29.8634 2.90963C28.6467 7.88304 27.4182 12.8528 26.1943 17.8235C26.1673 17.9316 26.1673 18.0469 26.1529 18.1749H48.8668V18.1758ZM27.4542 2.49796C27.3158 2.48085 27.2574 2.46733 27.1999 2.46733C23.1785 2.46553 19.1571 2.46103 15.1357 2.47904C14.9641 2.47904 14.7322 2.6511 14.6307 2.80874C11.4189 7.79025 8.22071 12.7808 5.02157 17.7704C4.94608 17.8875 4.88677 18.0145 4.78433 18.2001H5.34418C11.2347 18.2001 17.1244 18.1956 23.0149 18.2091C23.4427 18.21 23.6251 18.1064 23.7329 17.6623C24.6954 13.6762 25.6875 9.69638 26.6697 5.71477C26.9312 4.65631 27.1873 3.59696 27.456 2.49706L27.4542 2.49796ZM47.5593 2.46463C47.5971 2.65831 47.6168 2.78983 47.6483 2.91864C48.8659 7.85961 50.0881 12.7997 51.2949 17.7434C51.383 18.1028 51.5259 18.2091 51.8952 18.2082C57.8451 18.1956 63.7958 18.1992 69.7457 18.1983C69.8868 18.1983 70.0279 18.1857 70.2175 18.1776C70.1231 18.0109 70.0701 17.9055 70.0063 17.8064C66.7982 12.8042 63.5864 7.80467 60.3864 2.79793C60.2157 2.53039 60.0252 2.45833 59.7295 2.45923C55.842 2.46733 51.9554 2.46463 48.0679 2.46463C47.9206 2.46463 47.7732 2.46463 47.5566 2.46463H47.5593ZM25.8726 36.3542C25.8879 36.2569 25.9076 36.1849 25.9076 36.1137C25.9094 33.4022 25.9139 30.6908 25.8995 27.9802C25.8995 27.8127 25.7899 27.6082 25.6668 27.4848C23.4867 25.285 21.2994 23.0906 19.0996 20.9097C18.9513 20.7629 18.6907 20.6629 18.4804 20.6584C17.3302 20.6341 16.1781 20.6341 15.0279 20.6584C14.8185 20.6629 14.5624 20.7728 14.4132 20.9205C12.2349 23.0807 10.0674 25.2517 7.91427 27.4361C7.74892 27.6046 7.62401 27.8956 7.62221 28.1307C7.60155 30.7223 7.60874 33.314 7.61053 35.9047C7.61053 36.0497 7.62671 36.1948 7.63569 36.3542H25.8726ZM67.349 36.3614C67.3634 36.2425 67.3796 36.1695 67.3796 36.0957C67.3814 33.3977 67.3859 30.6998 67.3706 28.0009C67.3697 27.8208 67.2538 27.6001 67.1226 27.4677C64.9524 25.276 62.775 23.0906 60.5832 20.9196C60.4269 20.7647 60.1483 20.6629 59.9236 20.6584C58.8021 20.6323 57.6797 20.6305 56.5582 20.6593C56.3219 20.6656 56.0316 20.7809 55.8645 20.9467C53.6934 23.0951 51.5358 25.258 49.3907 27.4334C49.2245 27.6019 49.0996 27.8928 49.0978 28.128C49.0771 30.7214 49.0843 33.314 49.0861 35.9074C49.0861 36.0524 49.1014 36.1975 49.1104 36.3614H67.349ZM68.6862 54.5327C68.6862 53.803 68.6862 53.1166 68.6862 52.4311C68.6862 52.0083 68.4795 51.7966 68.0661 51.796C47.6941 51.796 27.323 51.796 6.95093 51.796C6.81614 51.796 6.67416 51.7717 6.55014 51.8077C6.46208 51.8329 6.33537 51.941 6.33447 52.014C6.31919 52.8463 6.32459 53.6796 6.32459 54.5327H68.6862ZM10.3325 49.3422V38.8396H7.65277V49.3422H10.3325ZM15.5212 49.3287V38.8603H12.8289V49.3287H15.5212ZM54.3009 38.8441V49.3305H56.9887V38.8441H54.3009ZM62.1756 49.3305V38.8585H59.4797V49.3305H62.1756ZM20.7018 49.3404V38.8612H18.0302V49.3404H20.7018ZM51.8036 38.845H49.1175V49.3287H51.8036V38.845ZM25.8744 49.3377V38.8495H23.2135V49.3377H25.8744ZM67.3454 49.3377V38.8477H64.6765V49.3377H67.3454ZM7.65097 20.6602V23.9752C8.73293 22.8915 9.8706 21.7511 10.9606 20.6602H7.65097ZM49.1166 23.9761C50.1977 22.8924 51.3345 21.7529 52.4137 20.671H49.1166V23.9761ZM28.4004 20.6674V24.0031C29.4968 22.9032 30.6281 21.77 31.7272 20.6674H28.4004ZM25.8825 20.6854H22.5252C23.6296 21.806 24.7529 22.9456 25.8825 24.0923V20.6854ZM43.2531 20.6683C44.3764 21.7952 45.5068 22.9276 46.6086 24.0329V20.6683H43.2531ZM67.3481 24.1509V20.6917H63.8749C65.0494 21.861 66.1799 22.987 67.3481 24.1509Z" fill="white"/>
</svg>
