<svg width="75" height="74" viewBox="0 0 75 74" fill="none" xmlns="http://www.w3.org/2000/svg">
<g clip-path="url(#clip0_2_6953)">
<path d="M74.9979 29.4705C74.9959 29.2536 74.9215 28.9903 74.7831 28.7094C74.6675 28.476 74.5208 28.2581 74.3659 28.0289C74.2967 27.9256 74.2265 27.8223 74.1604 27.718L72.5071 25.1209C70.3148 21.6759 68.048 18.1142 65.8061 14.6186C65.6305 14.3449 65.361 14.0971 65.0853 13.9546C60.9773 11.8355 56.7909 9.69788 52.7428 7.6315L52.0044 7.25458C49.5043 5.97819 47.0042 4.70387 44.5041 3.42955C42.3706 2.34215 40.2371 1.25371 38.1036 0.165271C37.675 -0.0536562 37.2971 -0.0557216 36.8778 0.159075C33.3709 1.95593 29.8009 3.7755 26.3497 5.53517L20.7237 8.40291C17.1713 10.2132 13.4981 12.0854 9.89198 13.9401C9.62349 14.0785 9.36325 14.315 9.19596 14.5721C8.23041 16.0612 7.26383 17.5844 6.32926 19.058C5.92548 19.6931 5.52274 20.3293 5.11793 20.9644C3.91693 22.85 2.71387 24.7346 1.51183 26.6182L0 28.9893V34.8208C0.590689 35.8493 1.07501 35.997 2.21095 35.5158C2.6674 35.3227 3.12487 35.1306 3.59577 34.9333L4.53241 34.5399L4.52931 40.7411C4.52621 45.0009 4.52414 49.2606 4.52414 53.5194C4.52414 55.3896 4.52621 57.2597 4.52827 59.1299C4.5324 63.3122 4.53757 67.6381 4.51795 71.8917C4.51588 72.3915 4.66149 72.8015 4.93825 73.0772C5.21294 73.3498 5.61981 73.4923 6.11343 73.4851C7.31443 73.4706 8.53505 73.4737 9.71539 73.4768C10.3598 73.4779 11.0042 73.4799 11.6486 73.4789C12.6317 73.4768 13.1511 72.9553 13.1511 71.9712C13.1511 70.9953 13.1501 70.0184 13.149 69.0425C13.148 68.0378 13.147 67.033 13.147 66.0292C13.148 54.7772 13.1501 43.5262 13.1532 32.2742C13.1532 32.1699 13.1418 32.0542 13.1304 31.9324C13.0995 31.6081 13.0675 31.2735 13.2378 31.0278C13.4113 30.7789 13.7294 30.6767 14.0371 30.5775C14.159 30.5383 14.2736 30.5011 14.3748 30.4567C14.3996 30.4464 14.4234 30.434 14.4471 30.4216C14.4863 30.402 14.5256 30.3823 14.5669 30.3658C15.0171 30.1861 15.4674 30.0064 15.9404 29.8185L16.594 29.5583V47.1189C16.594 50.4028 16.593 53.6877 16.594 56.9716C16.594 57.8752 17.0949 58.374 18.0047 58.375C18.6119 58.375 19.2201 58.3761 19.8273 58.3771C21.1378 58.3771 22.4937 58.3792 23.8269 58.3853C24.2461 58.3895 24.5663 58.2635 24.8348 57.996C25.1022 57.7286 25.2169 57.3888 25.2158 56.8601C25.2127 52.5931 25.2117 48.3271 25.2117 44.0601C25.2107 38.21 25.2086 32.3599 25.2034 26.5098C25.2034 26.0916 25.3542 25.8727 25.7415 25.726C26.2867 25.5205 26.834 25.2851 27.3638 25.0579C27.6054 24.9536 27.8481 24.8503 28.0908 24.7481L29.2174 24.2761C31.8084 23.1918 34.4882 22.0703 37.1277 20.9767C37.3374 20.89 37.6224 20.8869 37.8217 20.9695C39.411 21.6294 40.9982 22.2924 42.5854 22.9553C44.7199 23.8476 46.9268 24.7687 49.1016 25.6661C49.5766 25.8623 49.7532 26.1308 49.7532 26.6585C49.7408 35.1099 49.7408 43.7028 49.7418 52.0138V56.637C49.7418 56.6752 49.7418 56.7145 49.7418 56.7527C49.7418 56.8353 49.7398 56.9179 49.7439 56.9995C49.78 57.8628 50.3129 58.3792 51.169 58.3792H51.6595C53.3655 58.3802 55.1303 58.3812 56.8652 58.3719C57.9227 58.3668 58.3936 57.8897 58.3936 56.827V29.5572L58.6776 29.6719C58.9285 29.7731 59.1753 29.8753 59.4201 29.9755C60.0128 30.2192 60.5725 30.4495 61.1477 30.6591C61.6269 30.8336 61.8128 31.1021 61.8128 31.6205C61.7993 43.6966 61.8004 55.9741 61.8004 67.8488V71.839C61.8004 72.9739 62.3043 73.4799 63.4351 73.4799H64.0991C65.6812 73.4799 67.2622 73.481 68.8442 73.4799C69.9564 73.4789 70.4521 72.9801 70.4521 71.8617V34.545L70.7392 34.6659C70.9798 34.7671 71.2183 34.8631 71.4538 34.9571C71.9836 35.1698 72.4834 35.3712 72.9749 35.617C73.4417 35.8503 73.9405 35.8369 74.3443 35.5798C74.7697 35.3082 75.0145 34.8135 74.999 34.258C74.9721 33.3203 74.9824 32.3682 74.9928 31.447C75 30.7985 75.0072 30.1293 75.001 29.4715L74.9979 29.4705ZM6.24148 24.0231C7.10996 22.6569 7.95882 21.3206 8.80974 19.9854L9.09889 19.531C9.72262 18.551 10.367 17.5379 11.0176 16.5517C11.1797 16.306 11.411 16.0932 11.6527 15.9693C13.5786 14.9759 15.5417 13.9752 17.4398 13.0076C18.1379 12.6513 18.836 12.2961 19.5341 11.9398C25.2324 9.02974 31.1258 6.02156 37.0544 2.98757C37.2775 2.87294 37.5325 2.79239 37.8795 2.97001C43.3 5.74894 48.8166 8.56504 54.1503 11.2892L57.1244 12.8083C57.5871 13.0448 58.0507 13.2813 58.5144 13.5167C60.0551 14.3015 61.6486 15.1143 63.2079 15.928C63.5291 16.0953 63.8172 16.3524 63.9979 16.6333C65.5345 19.0157 67.0835 21.4466 68.5819 23.798L69.7251 25.5907C69.7447 25.6207 69.7612 25.6517 69.7912 25.7033C69.8077 25.7322 69.8284 25.7694 69.8563 25.8179L70.1661 26.359L68.9021 25.8076C68.4343 25.6042 67.9881 25.41 67.5431 25.2138C62.4448 22.9636 57.3464 20.7134 52.2481 18.4632L44.5681 15.074C42.4512 14.1404 40.2619 13.1749 38.1108 12.2207C37.6812 12.0307 37.294 12.0328 36.853 12.2269C33.6125 13.6613 30.3152 15.1143 27.1263 16.5197C25.5132 17.2302 23.8992 17.9417 22.2861 18.6532C18.6811 20.2435 15.076 21.8359 11.4709 23.4273L5.61465 26.0131C5.58367 26.0265 5.55165 26.0389 5.49279 26.0616L4.76889 26.3425L6.24251 24.0252L6.24148 24.0231ZM10.5467 70.8239H7.11306L7.11616 63.5518C7.11925 59.8858 7.12132 56.2209 7.12132 52.5549C7.12132 48.8889 7.11925 45.2239 7.11616 41.5579L7.11306 36.4596C7.11306 36.2665 7.11306 36.0724 7.11202 35.8793C7.10996 35.2431 7.10893 34.5853 7.12235 33.9378C7.12545 33.7643 7.22768 33.4649 7.43628 33.3719C8.13953 33.057 8.84278 32.7627 9.58734 32.4498C9.80834 32.3568 10.0324 32.2628 10.2606 32.1668L10.5477 32.046V70.8229L10.5467 70.8239ZM22.6011 55.7644H19.1809V51.2981C19.1809 44.0043 19.1809 36.4617 19.1747 29.044C19.1747 28.6619 19.2666 28.3738 19.7148 28.2086C20.227 28.0196 20.7402 27.7986 21.2369 27.5848C21.46 27.4888 21.6831 27.3927 21.9071 27.2988C21.9918 27.2637 22.0775 27.2316 22.1746 27.1965C22.2211 27.18 22.2696 27.1625 22.3212 27.1428L22.6001 27.0385V55.7655L22.6011 55.7644ZM55.7685 44.8615V55.7686H52.3793V27.0158L53.2426 27.3773C53.8219 27.6199 54.3889 27.8575 54.9558 28.095C54.993 28.1105 55.0291 28.1301 55.0663 28.1487C55.1066 28.1703 55.1489 28.192 55.1758 28.1972C55.7778 28.3067 55.7768 28.8096 55.7768 29.0523C55.7685 34.322 55.7685 39.6805 55.7695 44.8615H55.7685ZM67.8343 70.3034C67.8343 70.3695 67.8312 70.4356 67.826 70.5141C67.824 70.5513 67.8219 70.5926 67.8198 70.637L67.8116 70.8342H64.4523V32.0656L65.4106 32.4673C65.9083 32.6759 66.403 32.8835 66.8976 33.09C67.7744 33.4566 67.827 33.5351 67.827 34.4924L67.8301 42.2013C67.8322 46.0057 67.8332 49.8111 67.8343 53.6154C67.8353 58.5464 67.8343 63.4775 67.8343 68.4074V70.3034ZM72.3646 30.9214C72.3357 31.1847 72.3429 31.4615 72.3502 31.7548C72.3533 31.8952 72.3574 32.0398 72.3574 32.1916V32.4993L72.0724 32.3826C71.809 32.2742 71.5498 32.1699 71.2958 32.0656C70.7495 31.8436 70.2332 31.6329 69.7117 31.415C67.9789 30.6911 66.246 29.9672 64.5142 29.2423C62.4386 28.3738 60.3629 27.5063 58.2862 26.6399C54.9434 25.2458 51.6006 23.8527 48.2579 22.4597C46.1956 21.6005 44.1344 20.7413 42.0722 19.8821L41.1996 19.5186C40.1782 19.0942 39.1228 18.6553 38.0891 18.2112C37.6771 18.0347 37.2847 18.0429 36.8179 18.2391C33.1674 19.7706 29.4963 21.302 26.0729 22.7282C22.3099 24.2968 18.5458 25.8644 14.7827 27.432C11.9511 28.6113 9.11954 29.7906 6.28898 30.971C5.76748 31.1878 5.24702 31.4078 4.72551 31.6267C4.32484 31.7961 3.92313 31.9644 3.52245 32.1327C3.39646 32.1854 3.26945 32.2339 3.12281 32.2907C3.05052 32.3186 2.9741 32.3475 2.89149 32.3806L2.60957 32.49V32.1875C2.60957 32.0274 2.60853 31.8704 2.6075 31.7176C2.6044 31.288 2.60027 30.8822 2.62609 30.4742C2.64365 30.1892 3.05465 30.0023 3.0722 29.9941C5.03119 29.1183 7.02631 28.2375 8.95638 27.3845L9.46652 27.1594C11.1436 26.4179 12.8217 25.6775 14.4998 24.937L18.1234 23.3374C19.4638 22.7457 20.8042 22.154 22.1457 21.5623C26.8981 19.4659 31.8115 17.2973 36.6331 15.1401C37.325 14.8303 37.8589 14.9418 38.4485 15.2031C44.1065 17.7176 49.8647 20.2601 55.4339 22.7189L56.8043 23.324C61.6919 25.4823 66.7448 27.7139 71.7213 29.8939C72.0796 30.0508 72.4359 30.2956 72.3687 30.9224L72.3646 30.9214Z" fill="white"/>
</g>
<defs>
<clipPath id="clip0_2_6953">
<rect width="75" height="73.4851" fill="white"/>
</clipPath>
</defs>
</svg>
