<svg width="30.000000" height="30.000000" viewBox="0 0 30 30" fill="none" xmlns="http://www.w3.org/2000/svg" xmlns:xlink="http://www.w3.org/1999/xlink">
	<desc>
			Created with Pixso.
	</desc>
	<defs>
		<clipPath id="clip148_6959">
			<rect id="teenyicons:attach-outline" rx="0.000000" width="29.000000" height="29.000000" transform="translate(0.500000 0.500000)" fill="white" fill-opacity="0"/>
		</clipPath>
	</defs>
	<rect id="teenyicons:attach-outline" rx="0.000000" width="29.000000" height="29.000000" transform="translate(0.500000 0.500000)" fill="#FFFFFF" fill-opacity="0"/>
	<g clip-path="url(#clip148_6959)">
		<path id="Vector" d="M27 15L15.48 26.51C13.88 28.07 11.74 28.93 9.5 28.92C7.27 28.9 5.14 28.01 3.56 26.43C1.98 24.85 1.09 22.72 1.07 20.49C1.06 18.25 1.92 16.11 3.48 14.51L15.34 2.65C16.4 1.59 17.84 0.99 19.34 0.99C20.84 0.99 22.28 1.59 23.34 2.65C24.4 3.71 25 5.15 25 6.65C25 8.15 24.4 9.59 23.34 10.65L11.82 22.17C11.29 22.7 10.57 23 9.82 23C9.07 23 8.35 22.7 7.82 22.17C7.29 21.64 7 20.92 7 20.17C7 19.42 7.29 18.7 7.82 18.17L19 7" stroke="#FFFFFF" stroke-opacity="1.000000" stroke-width="1.000000"/>
	</g>
</svg>
