<svg width="17" height="17" viewBox="0 0 17 17" fill="none" xmlns="http://www.w3.org/2000/svg">
<path d="M9.2 7.6249V2.3749H10.95V4.6499L15.325 0.274902L16.55 1.4999L12.175 5.8749H14.45V7.6249H9.2ZM15.4563 16.3749C13.575 16.3749 11.7413 15.9555 9.95512 15.1167C8.16838 14.2784 6.58608 13.1701 5.20825 11.7917C3.82983 10.4138 2.7215 8.83153 1.88325 7.04478C1.04442 5.25861 0.625 3.4249 0.625 1.54365C0.625 1.28115 0.7125 1.0624 0.8875 0.887402C1.0625 0.712402 1.28125 0.624902 1.54375 0.624902H5.0875C5.29167 0.624902 5.47396 0.690527 5.63438 0.821777C5.79479 0.953027 5.88958 1.12074 5.91875 1.3249L6.4875 4.3874C6.51667 4.59157 6.51317 4.77736 6.477 4.94478C6.44025 5.11278 6.35625 5.2624 6.225 5.39365L4.10312 7.5374C4.71562 8.5874 5.48504 9.57178 6.41138 10.4905C7.33712 11.4093 8.35417 12.2041 9.4625 12.8749L11.5188 10.8187C11.65 10.6874 11.8215 10.5888 12.0332 10.5229C12.2444 10.4576 12.4521 10.4395 12.6562 10.4687L15.675 11.0812C15.8792 11.1249 16.0469 11.2232 16.1781 11.376C16.3094 11.5294 16.375 11.7082 16.375 11.9124V15.4562C16.375 15.7187 16.2875 15.9374 16.1125 16.1124C15.9375 16.2874 15.7188 16.3749 15.4563 16.3749ZM3.27188 5.8749L4.71563 4.43115L4.34375 2.3749H2.39688C2.46979 2.97282 2.57187 3.56344 2.70312 4.14678C2.83437 4.73011 3.02396 5.30615 3.27188 5.8749ZM11.1031 13.7062C11.6719 13.9541 12.2517 14.1509 12.8426 14.2968C13.433 14.4426 14.0271 14.5374 14.625 14.5812V12.6562L12.5687 12.2405L11.1031 13.7062Z" fill="black"/>
</svg>
