<svg width="28" height="30" viewBox="0 0 28 30" fill="none" xmlns="http://www.w3.org/2000/svg">
<path d="M27 15.0001L15.486 26.5141C13.8877 28.0714 11.7404 28.9364 9.50891 28.9219C7.27746 28.9073 5.14153 28.0144 3.56362 26.4365C1.98571 24.8586 1.09283 22.7227 1.0783 20.4913C1.06378 18.2598 1.9288 16.1124 3.48604 14.5141L15.344 2.65612C16.4049 1.59526 17.8437 0.999268 19.344 0.999268C20.8443 0.999268 22.2832 1.59526 23.344 2.65612C24.4049 3.71699 25.0009 5.15583 25.0009 6.65612C25.0009 8.15641 24.4049 9.59526 23.344 10.6561L11.828 22.1721C11.2976 22.7026 10.5782 23.0005 9.82804 23.0005C9.07789 23.0005 8.35847 22.7026 7.82804 22.1721C7.2976 21.6417 6.99961 20.9223 6.99961 20.1721C6.99961 19.422 7.2976 18.7026 7.82804 18.1721L19 7.00012" stroke="white"/>
</svg>
