<svg width="188.000000" height="40.000000" viewBox="0 0 188 40" fill="none" xmlns="http://www.w3.org/2000/svg" xmlns:xlink="http://www.w3.org/1999/xlink">
	<desc>
			Created with Pixso.
	</desc>
	<defs>
		<clipPath id="clip128_7026">
			<rect id="_Слой_1" rx="0.000000" width="187.000000" height="39.000000" transform="translate(0.500000 0.500000)" fill="white" fill-opacity="0"/>
		</clipPath>
	</defs>
	<rect id="_Слой_1" rx="0.000000" width="187.000000" height="39.000000" transform="translate(0.500000 0.500000)" fill="#FFFFFF" fill-opacity="0"/>
	<g clip-path="url(#clip128_7026)">
		<path id="Vector" d="M23.51 0.04L19.6 3.91C19.59 3.92 19.59 3.92 19.6 3.92L43.06 27.14C43.07 27.15 43.07 27.15 43.07 27.14L46.99 23.27C46.99 23.27 46.99 23.26 46.99 23.26L23.52 0.04C23.52 0.04 23.51 0.04 23.51 0.04Z" fill="#2B2862" fill-opacity="1.000000" fill-rule="evenodd"/>
		<path id="Vector" d="M23.47 0L0 23.22C0 23.22 0 23.23 0 23.23L3.91 27.1C3.92 27.1 3.92 27.1 3.92 27.1L27.39 3.88C27.39 3.88 27.39 3.87 27.39 3.87L23.47 0C23.47 0 23.47 0 23.47 0Z" fill="#2B2862" fill-opacity="1.000000" fill-rule="evenodd"/>
		<path id="Vector" d="M12.96 26.65L7.43 26.65C7.42 26.65 7.42 26.65 7.42 26.65L7.42 40C7.42 40 7.42 40 7.43 40L12.96 40C12.97 40 12.97 40 12.97 40L12.97 26.65C12.97 26.65 12.97 26.65 12.96 26.65Z" fill="#00AEEF" fill-opacity="1.000000" fill-rule="evenodd"/>
		<path id="Vector" d="M21.83 19.38L16.3 19.38C16.29 19.38 16.29 19.38 16.29 19.38L16.29 39.99C16.29 39.99 16.29 40 16.3 40L21.83 40C21.84 40 21.84 39.99 21.84 39.99L21.84 19.38C21.84 19.38 21.84 19.38 21.83 19.38Z" fill="#FFF204" fill-opacity="1.000000" fill-rule="evenodd"/>
		<path id="Vector" d="M30.71 19.38L25.17 19.38C25.17 19.38 25.17 19.38 25.17 19.38L25.17 39.99C25.17 39.99 25.17 40 25.17 40L30.71 40C30.71 40 30.71 39.99 30.71 39.99L30.71 19.38C30.71 19.38 30.71 19.38 30.71 19.38Z" fill="#EE008D" fill-opacity="1.000000" fill-rule="evenodd"/>
		<path id="Vector" d="M39.58 26.65L34.04 26.65C34.04 26.65 34.04 26.65 34.04 26.65L34.04 40C34.04 40 34.04 40 34.04 40L39.58 40C39.58 40 39.58 40 39.58 40L39.58 26.65C39.58 26.65 39.58 26.65 39.58 26.65Z" fill="#46B848" fill-opacity="1.000000" fill-rule="evenodd"/>
		<path id="Vector" d="M67.71 27.64L63.08 27.64L63.08 35.22L58.07 35.22L58.07 13.21L67.59 13.21C70.74 13.21 73.05 13.8 74.51 14.96C75.98 16.12 76.71 17.92 76.71 20.35C76.71 21.28 76.57 22.15 76.31 22.95C76.04 23.75 75.71 24.39 75.29 24.85C74.47 25.76 73.75 26.33 73.15 26.55L72.73 26.67L78.25 35.22L72.61 35.22L67.71 27.63L67.71 27.64ZM71.47 20.44C71.47 18.41 70.17 17.39 67.59 17.4L63.08 17.4L63.08 23.46L67.59 23.46C68.9 23.46 69.88 23.22 70.51 22.73C71.15 22.24 71.47 21.47 71.47 20.44L71.47 20.44Z" fill="#2B2862" fill-opacity="1.000000" fill-rule="nonzero"/>
		<path id="Vector" d="M99.33 33.44C97.42 34.83 94.91 35.52 91.81 35.52C88.71 35.52 86.21 34.83 84.3 33.44C82.39 32.04 81.44 29.99 81.44 27.3L81.44 13.21L86.45 13.21L86.45 26.98C86.45 28.42 86.96 29.47 87.98 30.14C88.99 30.81 90.28 31.14 91.83 31.14C93.37 31.14 94.64 30.8 95.66 30.14C96.67 29.48 97.18 28.42 97.18 26.98L97.18 13.21L102.2 13.21L102.2 27.3C102.2 29.99 101.25 32.04 99.33 33.44L99.33 33.44Z" fill="#2B2862" fill-opacity="1.000000" fill-rule="nonzero"/>
		<path id="Vector" d="M108.99 31.18C109.49 31.62 109.74 32.23 109.74 33.01C109.74 33.79 109.49 34.4 108.99 34.85C108.49 35.3 107.84 35.52 107.04 35.52C106.24 35.52 105.59 35.3 105.09 34.85C104.59 34.4 104.34 33.79 104.34 33.01C104.34 32.23 104.59 31.62 105.09 31.18C105.59 30.73 106.24 30.5 107.04 30.5C107.84 30.5 108.49 30.73 108.99 31.18Z" fill="#2B2862" fill-opacity="1.000000" fill-rule="nonzero"/>
		<path id="Vector" d="M113.33 35.34L113.04 35.25L113.04 30.6C113.38 30.66 113.74 30.69 114.12 30.69C114.99 30.69 115.61 30.4 116 29.82C116.37 29.26 116.64 28.34 116.82 27.06L118.58 13.22L135.31 13.22L135.31 35.22L130.28 35.22L130.28 17.56L123.21 17.56L121.85 27.99C121.5 30.64 120.86 32.56 119.94 33.74C119.02 34.93 117.52 35.52 115.43 35.52C114.55 35.52 113.85 35.46 113.33 35.34Z" fill="#2B2862" fill-opacity="1.000000" fill-rule="nonzero"/>
		<path id="Vector" d="M159.68 15.94C161.76 17.99 162.8 20.75 162.8 24.21C162.8 27.68 161.76 30.45 159.68 32.47C157.61 34.5 154.81 35.52 151.26 35.52C147.71 35.52 144.91 34.5 142.85 32.47C140.78 30.44 139.74 27.69 139.74 24.21C139.74 20.74 140.78 17.99 142.85 15.94C144.92 13.92 147.72 12.9 151.26 12.9C154.8 12.9 157.6 13.92 159.68 15.94ZM151.28 31.13C153.27 31.13 154.82 30.48 155.91 29.18C157.01 27.88 157.56 26.23 157.56 24.21C157.56 22.19 157.01 20.55 155.91 19.25C154.82 17.95 153.27 17.3 151.28 17.3C149.28 17.3 147.73 17.95 146.64 19.25C145.53 20.56 144.98 22.22 144.98 24.21C144.98 26.2 145.53 27.87 146.64 29.18C147.73 30.48 149.28 31.13 151.28 31.13Z" fill="#2B2862" fill-opacity="1.000000" fill-rule="nonzero"/>
		<path id="Vector" d="M188 35.22L182.99 35.22L182.99 25.92L172.24 25.92L172.24 35.22L167.23 35.22L167.23 13.21L172.24 13.21L172.24 21.58L182.99 21.58L182.99 13.21L188 13.21L188 35.22Z" fill="#2B2862" fill-opacity="1.000000" fill-rule="nonzero"/>
	</g>
</svg>
