<svg width="30.000000" height="30.000000" viewBox="0 0 30 30" fill="none" xmlns="http://www.w3.org/2000/svg" xmlns:xlink="http://www.w3.org/1999/xlink">
	<desc>
			Created with Pixso.
	</desc>
	<defs>
		<clipPath id="clip128_17616">
			<rect id="Yandex_Maps_icon (1) 1" rx="0.000000" width="29.000000" height="29.000000" transform="translate(0.500000 0.500000)" fill="white" fill-opacity="0"/>
		</clipPath>
	</defs>
	<rect id="Yandex_Maps_icon (1) 1" rx="0.000000" width="29.000000" height="29.000000" transform="translate(0.500000 0.500000)" fill="#FFFFFF" fill-opacity="0"/>
	<g clip-path="url(#clip128_17616)">
		<path id="Vector" d="M15 1.87C8.78 1.87 3.75 6.91 3.75 13.12C3.75 16.23 5 19.04 7.04 21.07C9.07 23.11 13.87 26.06 14.15 29.15C14.19 29.62 14.53 30 15 30C15.46 30 15.8 29.62 15.84 29.15C16.12 26.06 20.92 23.11 22.95 21.07C24.99 19.04 26.25 16.23 26.25 13.12C26.25 6.91 21.21 1.87 15 1.87Z" fill="#FF4433" fill-opacity="1.000000" fill-rule="nonzero"/>
		<path id="Vector" d="M15 17.06C17.17 17.06 18.93 15.3 18.93 13.12C18.93 10.95 17.17 9.18 15 9.18C12.82 9.18 11.06 10.95 11.06 13.12C11.06 15.3 12.82 17.06 15 17.06Z" fill="#FFFFFF" fill-opacity="1.000000" fill-rule="nonzero"/>
	</g>
</svg>
