<svg width="20.932129" height="30.000000" viewBox="0 0 20.9321 30" fill="none" xmlns="http://www.w3.org/2000/svg" xmlns:xlink="http://www.w3.org/1999/xlink">
	<desc>
			Created with Pixso.
	</desc>
	<defs/>
	<path id="Vector" d="M5.77 22.22C6.63 23.33 7.42 24.5 8.13 25.71C8.73 26.85 8.98 27.63 9.43 29.01C9.7 29.77 9.94 29.99 10.46 29.99C11.04 29.99 11.3 29.61 11.5 29.01C11.91 27.71 12.24 26.72 12.76 25.78C13.77 23.97 15.03 22.36 16.26 20.81C16.6 20.37 18.76 17.82 19.73 15.81C19.73 15.81 20.93 13.6 20.93 10.51C20.93 7.63 19.75 5.62 19.75 5.62L16.35 6.53L14.29 11.97L13.78 12.72L13.67 12.85L13.54 13.02L13.3 13.29L12.96 13.63L11.12 15.13L6.53 17.78L5.77 22.22Z" fill="#34A853" fill-opacity="1.000000" fill-rule="nonzero"/>
	<path id="Vector" d="M1.03 15.44C2.15 18 4.31 20.25 5.77 22.23L13.54 13.02C13.54 13.02 12.44 14.46 10.46 14.46C8.25 14.46 6.46 12.69 6.46 10.46C6.46 8.94 7.38 7.89 7.38 7.89L2.11 9.3L1.03 15.44Z" fill="#FBBC04" fill-opacity="1.000000" fill-rule="nonzero"/>
	<path id="Vector" d="M13.63 0.47C16.21 1.3 18.41 3.05 19.75 5.62L13.54 13.02C13.54 13.02 14.46 11.95 14.46 10.43C14.46 8.16 12.54 6.45 10.47 6.45C8.51 6.45 7.38 7.88 7.38 7.88L7.38 3.22L13.63 0.47Z" fill="#4285F4" fill-opacity="1.000000" fill-rule="nonzero"/>
	<path id="Vector" d="M2.45 3.74C3.99 1.89 6.7 0 10.44 0C12.25 0 13.62 0.47 13.62 0.47L7.38 7.89L2.96 7.89L2.45 3.74Z" fill="#1A73E8" fill-opacity="1.000000" fill-rule="nonzero"/>
	<path id="Vector" d="M1.03 15.44C1.03 15.44 0 13.42 0 10.5C0 7.73 1.07 5.31 2.45 3.74L7.38 7.89L1.03 15.44Z" fill="#EA4335" fill-opacity="1.000000" fill-rule="nonzero"/>
</svg>
