<svg width="28.940430" height="30.000000" viewBox="0 0 28.9404 30" fill="none" xmlns="http://www.w3.org/2000/svg" xmlns:xlink="http://www.w3.org/1999/xlink">
	<desc>
			Created with Pixso.
	</desc>
	<defs/>
	<path id="path22" d="M21.48 17.85C16.26 17.87 15.41 21.14 15.13 23.89L15 25.11L13.95 25.11L13.83 23.89C13.54 21.14 12.67 17.87 7.63 17.85C6.78 16.04 6.42 14.58 6.42 12.94C6.42 8.83 9.68 4.98 14.49 4.98C19.31 4.98 22.51 8.8 22.51 12.97C22.51 14.58 22.35 16.04 21.48 17.85ZM14.44 0C6.5 0 0 6.73 0 14.98C0 23.26 6.5 30 14.44 30C22.46 30 28.94 23.26 28.94 14.98C28.94 6.73 22.46 0 14.44 0Z" fill="#29B24A" fill-opacity="1.000000" fill-rule="nonzero"/>
</svg>
